<?xml version="1.0" encoding="utf-8"?>
<!-- Generator: Adobe Illustrator 19.2.1, SVG Export Plug-In . SVG Version: 6.00 Build 0)  -->
<svg version="1.1" id="图形" xmlns="http://www.w3.org/2000/svg" xmlns:xlink="http://www.w3.org/1999/xlink" x="0px" y="0px"
	 viewBox="15.167 -16.333 1000.636 1000.678" enable-background="new 15.167 -16.333 1000.636 1000.678" xml:space="preserve">
<g>
	<path d="M311.298,778.684c-29.776,0-53.899,24.125-53.899,53.904c0,29.774,24.121,53.897,53.899,53.897
		c29.78,0,53.898-24.123,53.898-53.897C365.196,802.809,341.078,778.684,311.298,778.684z"/>
	<path d="M742.055,697.841H304.32c-11.428,0-22.744-10.539-24.253-23.044L234.171,351.65l-25.952-149.808
		c-4.771-39.213-39.293-69.935-78.612-69.935H95.275c-14.877,0-26.95,12.073-26.95,26.95c0,14.873,12.072,26.946,26.95,26.946
		h34.332c11.695,0,23.66,10.73,25.277,23.851l26.005,150.376l45.706,321.774c4.745,39.214,38.888,69.934,77.724,69.934h437.735
		c14.903,0,26.953-12.047,26.953-26.949S756.957,697.841,742.055,697.841z"/>
	<path d="M688.588,778.684c-29.778,0-53.901,24.125-53.901,53.904c0,29.774,24.123,53.897,53.901,53.897
		c29.776,0,53.898-24.123,53.898-53.897C742.486,802.809,718.366,778.684,688.588,778.684z"/>
	<path d="M957.202,246.367c-17.625-79.411-79.987-141.772-159.398-159.398C688.83,62.782,589.648,121.803,551.521,212.756H283.918
		c-14.878,0-26.951,12.073-26.951,26.946c0,14.878,12.073,26.95,26.951,26.95l252.969,0c-3.329,24.807-2.406,50.961,3.53,77.705
		c17.625,79.411,79.987,141.772,159.398,159.398c11.33,2.515,22.554,4.124,33.615,4.898l-5.577,31.913
		c-1.479,11.991-12.8,22.53-26.219,22.609l-365.598,26.95c-14.821,1.077-25.976,13.988-24.875,28.835
		c1.026,14.203,12.859,24.982,26.844,24.982l0.003,0.002c0.645,0,1.32-0.026,1.993-0.08l363.597-26.868
		c38.834,0,72.952-30.723,77.534-68.502l7.519-43.004C902.861,483.964,985.006,371.634,957.202,246.367z M895.271,295.362
		c0,14.845-12.146,26.992-26.992,26.992h-92.478v92.478c0,14.845-12.146,26.992-26.992,26.992s-26.992-12.146-26.992-26.992v-92.478
		H629.34c-14.845,0-26.992-12.146-26.992-26.992v0c0-14.845,12.146-26.992,26.992-26.992h92.478v-92.478
		c0-14.845,12.146-26.992,26.992-26.992s26.992,12.146,26.992,26.992v92.478h92.478C883.125,268.37,895.271,280.516,895.271,295.362
		L895.271,295.362z"/>
</g>
</svg>
