<?xml version="1.0" encoding="utf-8"?>
<!-- Generator: Adobe Illustrator 19.2.1, SVG Export Plug-In . SVG Version: 6.00 Build 0)  -->
<svg version="1.1" id="图形" xmlns="http://www.w3.org/2000/svg" xmlns:xlink="http://www.w3.org/1999/xlink" x="0px" y="0px"
	 viewBox="15.167 -16.333 1000.636 1000.678" enable-background="new 15.167 -16.333 1000.636 1000.678" xml:space="preserve">
<path d="M502.76,922.866c-10.136-6.883-12.792-20.692-5.909-30.828l265.257-391.379c26.822-42.446,41.008-91.222,41.008-141.016
	c0-151.041-129.043-273.932-287.653-273.932S227.832,208.602,227.832,359.665c0,49.683,14.141,98.37,40.477,140.175l183.33,271.011
	c6.86,10.158,4.183,23.945-5.953,30.806c-10.114,6.838-23.945,4.183-30.806-5.953L231.196,524.117
	c-31.204-49.484-47.714-106.36-47.714-164.452c0-175.518,148.939-318.326,332.003-318.326s332.003,142.809,332.003,318.326
	c0,58.203-16.554,115.145-48.267,165.293L533.588,916.935c-4.293,6.329-11.287,9.737-18.391,9.737
	C510.904,926.673,506.566,925.411,502.76,922.866z M359.841,358.448c0-85.822,69.8-155.622,155.622-155.622
	s155.622,69.822,155.622,155.622s-69.822,155.6-155.622,155.6C429.662,514.048,359.863,444.248,359.841,358.448z M405.518,358.448
	c0,60.638,49.329,109.967,109.945,109.967c60.616,0,109.945-49.351,109.945-109.967S576.1,248.503,515.463,248.503
	C454.847,248.503,405.518,297.81,405.518,358.448z"/>
</svg>
