<?xml version="1.0" standalone="no"?><!DOCTYPE svg PUBLIC "-//W3C//DTD SVG 1.1//EN" "http://www.w3.org/Graphics/SVG/1.1/DTD/svg11.dtd"><svg width="232.2265625" height="200" viewBox="0 0 232.2265625 200" version="1.1" xmlns="http://www.w3.org/2000/svg" xmlns:xlink="http://www.w3.org/1999/xlink"><defs><style type="text/css"><![CDATA[
@font-face { font-family: ifont; src: url(http://at.alicdn.com/t/font_1442373896_4754455.eot?#iefix) format(embedded-opentype), url(http://at.alicdn.com/t/font_1442373896_4754455.woff) format(woff), url(http://at.alicdn.com/t/font_1442373896_4754455.ttf) format(truetype), url(http://at.alicdn.com/t/font_1442373896_4754455.svg#ifont) format(svg); }

]]></style></defs><g class="transform-group"><g transform="scale(0.1953125, 0.1953125)"><path d="M1005.324627 759.635321l-554.627321 0c-76.698552 0-111.0569-60.964534-119.325873-95.61638l-158.099444-528.065798c-0.414725-1.403684-0.306258-0.714603-0.478529-1.563193-3.407123-10.029958-13.411559-25.923485-42.550756-25.923485l-76.009471 0c-29.949505 0-54.233233-24.283728-54.233233-54.233233s24.283728-54.233233 54.233233-54.233233l76.009471 0c93.9511 0 137.05695 68.353014 147.182613 105.665479l158.386561 529.029235c0.66356 2.226753 0.765646 2.143808 1.078284 4.064302 3.553872 12.41622 10.974254 12.41622 13.800763 12.41622l551.819954 0c1.595095-2.839269 3.049822-7.228971 3.145528-7.815966 0.038282-0.255215 0.082945-0.51043 0.133988-0.765646l71.1221-400.821873-595.404332 0c-29.949505 0-54.233233-24.283728-54.233233-54.233233s24.283728-54.233233 54.233233-54.233233l622.418862 0c26.204222 0 49.141689 10.425541 64.58859 29.35613 25.298208 30.995888 20.219425 71.045535 17.711936 83.908382l-73.578546 414.648157C1104.750093 708.707126 1067.871495 759.635321 1005.324627 759.635321zM555.156893 945.546843m-78.453157 0a12.296 12.296 0 1 0 156.906313 0 12.296 12.296 0 1 0-156.906313 0ZM880.556289 945.546843m-78.453157 0a12.296 12.296 0 1 0 156.906313 0 12.296 12.296 0 1 0-156.906313 0Z" fill="#272636"></path></g></g></svg>