<?xml version="1.0" encoding="utf-8"?>
<!-- Generator: Adobe Illustrator 19.2.1, SVG Export Plug-In . SVG Version: 6.00 Build 0)  -->
<svg version="1.1" id="图形" xmlns="http://www.w3.org/2000/svg" xmlns:xlink="http://www.w3.org/1999/xlink" x="0px" y="0px"
	 viewBox="15.167 -16.333 1000.636 1000.678" enable-background="new 15.167 -16.333 1000.636 1000.678" xml:space="preserve">
<g>
	<g transform="scale(0.1953125, 0.1953125)">
		<path d="M2639.273,275.656c-1216.464,0-2202.516,986.052-2202.516,2202.38c0,1216.605,986.052,2202.516,2202.516,2202.516
			c1216.469,0,2202.521-985.911,2202.521-2202.516C4841.794,1261.708,3855.742,275.656,2639.273,275.656z M2639.273,4405.515
			c-1064.287,0-1927.202-862.784-1927.202-1927.207c0-1064.429,862.915-1927.207,1927.202-1927.207
			c1064.292,0,1927.202,862.779,1927.202,1927.207C4566.475,3542.731,3703.57,4405.515,2639.273,4405.515z M3556.509,1559.873
			c-63.323-63.182-166.031-63.182-229.349,0l-692.051,690.167l-682.233-680.486c-62.921-62.644-164.818-62.644-227.733,0
			c-62.769,62.78-62.769,164.546,0,227.19l682.243,680.491l-686.95,685.047c-63.308,63.328-63.308,165.895,0,229.083
			c63.459,63.046,166.162,63.046,229.611,0l686.94-685.34l682.107,680.768c62.916,62.634,164.818,62.634,227.723,0
			c62.916-62.91,62.916-164.546,0-227.315l-682.107-680.496l691.794-690.037C3619.953,1725.763,3619.953,1623.06,3556.509,1559.873z
			"/>
	</g>
</g>
</svg>
