<?xml version="1.0" standalone="no"?><!DOCTYPE svg PUBLIC "-//W3C//DTD SVG 1.1//EN" "http://www.w3.org/Graphics/SVG/1.1/DTD/svg11.dtd"><svg width="206.0546875" height="200" viewBox="0 0 206.0546875 200" version="1.1" xmlns="http://www.w3.org/2000/svg" xmlns:xlink="http://www.w3.org/1999/xlink"><defs><style type="text/css"><![CDATA[
@font-face { font-family: ifont; src: url(http://at.alicdn.com/t/font_1442373896_4754455.eot?#iefix) format(embedded-opentype), url(http://at.alicdn.com/t/font_1442373896_4754455.woff) format(woff), url(http://at.alicdn.com/t/font_1442373896_4754455.ttf) format(truetype), url(http://at.alicdn.com/t/font_1442373896_4754455.svg#ifont) format(svg); }

]]></style></defs><g class="transform-group"><g transform="scale(0.1953125, 0.1953125)"><path d="M957.991918 584.316194 957.352696 680.973289 896.25653 681.410652C956.915333 680.165851 957.991918 669.871012 957.991918 584.316194ZM862.310477 681.646154 896.25653 681.410652C886.46634 681.612511 875.498637 681.646154 862.310477 681.646154ZM814.80619 438.304432 717.240727 438.741795C690.830765 438.741795 669.400007 416.94096 669.400007 390.059993 669.400007 363.179026 690.830765 341.411834 717.240727 341.411834L814.80619 340.974472C841.249795 340.974472 862.64691 362.741663 862.64691 389.62263 862.64691 416.503598 841.249795 438.304432 814.80619 438.304432ZM575.568946 340.974472C602.012551 340.974472 623.409666 362.741663 623.409666 389.62263 623.409666 416.503598 602.012551 438.304432 575.568946 438.304432L478.003483 438.741795C451.593521 438.741795 430.162762 416.94096 430.162762 390.059993 430.162762 363.179026 451.593521 341.411834 478.003483 341.411834L575.568946 340.974472ZM97.800966 620.987351C97.599106 610.490653 97.565463 598.782797 97.565463 584.316194L97.800966 620.987351ZM165.457568 681.444295 98.204685 680.973289 97.800966 620.987351C98.810264 672.697046 106.783717 680.334067 165.457568 681.444295ZM238.766238 341.411834 336.331702 340.974472C362.775306 340.974472 384.172422 362.741663 384.172422 389.62263 384.172422 416.503598 362.775306 438.304432 336.331702 438.304432L238.766238 438.741795C212.356277 438.741795 190.925518 416.94096 190.925518 390.059993 190.925518 363.179026 212.356277 341.411834 238.766238 341.411834ZM959.169432 778.942471 908.334461 778.942471 908.334461 779.043401 547.106745 779.379834 319.745573 1009.196964C301.039919 1028.205408 270.760982 1028.205408 252.055327 1009.196964 233.383316 990.188521 233.383316 959.371292 252.055327 940.362848L489.00483 700.856458C497.785721 689.686894 510.704734 682.049874 525.877846 682.049874L527.05536 682.049874C527.290863 682.049874 527.526366 682.049874 527.795512 682.049874L958.092848 681.679798 957.756415 172.018004C956.67983 108.533167 948.639091 98.97848 893.598712 97.800966L957.352696 98.238328 957.756415 156.172027 957.722772 97.666393 880.713342 97.700036C884.952393 97.700036 889.797023 97.733679 893.598712 97.800966L877.349016 97.700036 158.829845 98.036469C106.951934 99.684989 97.969182 109.374248 96.488879 158.627986L96.825311 681.982587 288.490981 681.612511C314.900943 681.612511 336.331702 703.413346 336.331702 730.294313 336.331702 757.17528 314.900943 778.942471 288.490981 778.942471L147.222919 779.211617 147.222919 778.942471 96.387949 778.942471C44.981043 778.942471 3.364326 737.628544 1.110228 685.885206L0.740152 97.128101C1.009298 45.081973 41.4485 3.027894 92.148898 0.706509L959.438578 0.302789C1007.212012 0.471006 1046.406413 36.267438 1053.404212 82.897L1053.774288 692.378355C1048.458652 740.992871 1008.389526 778.942471 959.169432 778.942471ZM96.455235 98.036469 96.455235 132.621743 96.690738 98.238328 126.532313 98.036469 96.455235 98.036469Z" fill="#272636"></path></g></g></svg>