<?xml version="1.0" encoding="utf-8"?>
<!-- Generator: Adobe Illustrator 19.2.1, SVG Export Plug-In . SVG Version: 6.00 Build 0)  -->
<svg version="1.1" id="图形" xmlns="http://www.w3.org/2000/svg" xmlns:xlink="http://www.w3.org/1999/xlink" x="0px" y="0px"
	 viewBox="15.167 -16.333 1000.636 1000.678" enable-background="new 15.167 -16.333 1000.636 1000.678" xml:space="preserve">
<g>
	<g transform="scale(0.1953125, 0.1953125)">
		<path d="M2959.029,3595.326V1839.733c0-204.592,319.62-204.592,319.62,0v1755.593
			C3278.644,3799.934,2959.029,3799.934,2959.029,3595.326L2959.029,3595.326L2959.029,3595.326z M1999.874,3595.326V1839.733
			c0-204.592,319.767-204.592,319.767,0v1755.593C2319.641,3799.934,1999.874,3799.934,1999.874,3595.326L1999.874,3595.326
			L1999.874,3595.326z M4717.393,1041.692h-799.209v-319.32c0-264.365-214.924-478.716-474.624-478.716H1840.058
			c-264.79,0-479.567,214.351-479.567,478.716v319.32H561.277c-204.897,0-204.897,319.042,0,319.042h4156.11
			C4922.132,1360.739,4922.132,1041.692,4717.393,1041.692L4717.393,1041.692L4717.393,1041.692z M1680.254,722.377
			c0-84.79,74.889-159.674,159.799-159.674h1603.502c84.916,0,154.857,64.868,154.857,159.674v319.32H1680.254V722.377
			L1680.254,722.377z M3758.232,4712.551H1520.285c-264.643,0-479.419-214.329-479.419-478.694l0-2394.13
			c0-94.806,74.889-159.668,159.799-159.668c84.932,0,159.821,64.862,159.821,159.668v2394.13
			c0,84.621,75.031,159.499,159.799,159.499h2237.947c84.916,0,159.947-74.884,159.947-159.499V1844.676
			c0-209.534,319.62-209.534,319.62,0v2389.187C4237.805,4498.222,4023.023,4712.551,3758.232,4712.551L3758.232,4712.551z"/>
	</g>
</g>
</svg>
