<?xml version="1.0" encoding="utf-8"?>
<!-- Generator: Adobe Illustrator 19.2.1, SVG Export Plug-In . SVG Version: 6.00 Build 0)  -->
<svg version="1.1" id="图形" xmlns="http://www.w3.org/2000/svg" xmlns:xlink="http://www.w3.org/1999/xlink" x="0px" y="0px"
	 viewBox="15.167 -16.333 1000.636 1000.678" enable-background="new 15.167 -16.333 1000.636 1000.678" xml:space="preserve">
<g>
	<g transform="scale(0.2, 0.2)">
		<path d="M4708.167,684.731c-78.468-78.464-205.684-78.464-284.141,0L2435.067,2673.605c-78.468,78.454-78.468,205.664,0,284.128
			c78.458,78.454,205.673,78.454,284.131,0L4708.166,968.859C4786.624,890.395,4786.624,763.185,4708.167,684.731z
			 M3971.345,2818.172c-109.944,0-199.083,89.125-199.083,199.074v995.376c0,109.949-89.129,199.074-199.083,199.074H985.087
			c-109.954,0-199.083-89.125-199.083-199.074V827.42c0-109.94,89.129-199.074,199.083-199.074h1990.836
			c109.954,0,199.083-89.125,199.083-199.074c0-109.939-89.129-199.074-199.083-199.074H786.004
			c-219.898,0-398.165,178.26-398.165,398.149v3583.356c0,219.888,178.267,398.159,398.165,398.159h2986.259
			c219.908,0,398.165-178.27,398.165-398.159V3017.246C4170.428,2907.297,4081.3,2818.172,3971.345,2818.172z"/>
	</g>
</g>
</svg>
