<?xml version="1.0" encoding="utf-8"?>
<!-- Generator: Adobe Illustrator 19.2.1, SVG Export Plug-In . SVG Version: 6.00 Build 0)  -->
<svg version="1.1" id="图形" xmlns="http://www.w3.org/2000/svg" xmlns:xlink="http://www.w3.org/1999/xlink" x="0px" y="0px"
	 viewBox="15.167 -16.333 1000.636 1000.678" enable-background="new 15.167 -16.333 1000.636 1000.678" xml:space="preserve">
<g>
	<g transform="scale(0.1953125, 0.1953125)">
		<path d="M2639.206,4577.895c-63.426,0-125.995-21.362-176.185-60.146c-34.044-26.317-343.106-266.579-707.834-596.298
			C1268.998,3481.919,920.27,3098.715,718.684,2782.48c-91.461-143.615-179.125-285.744-246.654-445.865
			c-80.54-190.967-119.684-379.844-119.684-577.428c0-364.001,130.756-707.457,368.19-967.094
			c244.01-266.832,570.487-413.78,919.302-413.78c390.479,0,757.404,191.397,999.421,510.976
			c242.087-319.568,609.039-510.976,999.454-510.976c348.766,0,675.227,146.949,919.242,413.775
			c237.473,259.664,368.25,603.121,368.25,967.1c0,448.256-211.812,780.598-366.478,1023.266
			c-201.521,316.246-550.233,699.46-1036.454,1139.003c-364.739,329.725-673.843,569.997-707.888,596.303
			C2765.168,4556.543,2702.61,4577.895,2639.206,4577.895z M1639.838,647.557c-272.308,0-528.225,115.86-720.602,326.235
			c-191.936,209.884-297.635,488.811-297.635,785.39c0,160.944,32.224,315.594,98.52,472.796
			c59.398,140.836,140.627,272.324,225.641,405.811c455.833,715.093,1632.063,1628.385,1681.913,1666.915
			c4.206,3.253,8.589,3.931,11.53,3.931c2.935,0,7.323-0.684,11.556-3.953c49.828-38.503,1226.183-951.806,1681.891-1666.931
			c152.011-238.512,324.291-508.822,324.291-878.569c0-296.558-105.721-575.484-297.683-785.39
			c-192.394-210.369-448.288-326.229-720.554-326.229c-361.48,0-698.9,212.442-880.583,554.423
			c-23.361,43.98-69.096,71.466-118.892,71.466c-0.005,0-0.011,0-0.016,0c-49.801-0.005-95.531-27.502-118.892-71.493
			C2338.754,859.993,2001.367,647.557,1639.838,647.557z"/>
	</g>
</g>
</svg>
