<?xml version="1.0" encoding="utf-8"?>
<!-- Generator: Adobe Illustrator 19.2.1, SVG Export Plug-In . SVG Version: 6.00 Build 0)  -->
<svg version="1.1" id="图形" xmlns="http://www.w3.org/2000/svg" xmlns:xlink="http://www.w3.org/1999/xlink" x="0px" y="0px"
	 viewBox="15.167 -16.333 1000.636 1000.678" enable-background="new 15.167 -16.333 1000.636 1000.678" xml:space="preserve">
<g>
	<g transform="scale(0.1953125, 0.1953125)">
		<path d="M2392.196,1306.983c0,59.558,33.164,110.677,86.178,154.501c-0.865,0.29-1.145,0.855-2.004,1.14
			c-118.463,36.902-348.203,31.71-769.016-198.315c-936.186-512.18-1349.238-19.876-1353.865-14.688
			c-31.71,38.616-25.638,95.39,13.264,126.534c38.926,31.135,96.269,25.638,128.268-13.264
			c3.453-4.328,319.657-381.052,1123.836,58.802c289.376,158.539,535.253,237.791,733.568,237.791
			c40.061,0,77.823-4.598,113.841-10.67c2.884,6.067,6.932,12.404,9.81,18.166h280.735v720.879H933.995v-540.731
			c0-99.727,81.566-180.144,182.467-180.144h605c-61.685-28.551-124.795-59.377-189.954-95.109
			c-60.806-33.159-119.893-61.106-177.55-85.324h-237.496c-201.478,0-364.635,161.697-364.635,360.582v720.879h273.544V4189.92
			c0,199.194,163.147,360.606,364.63,360.606h2916.371c201.478,0,364.635-161.413,364.635-360.606V2568.893h274.398l-1.455-721.469
			l0.01,0.019c0-198.89-163.132-360.582-364.61-360.582h-283.349c118.483-114.135,192.263-273.544,192.263-450.509
			c0.005-348.203-285.633-630.672-637.859-630.672c-358.578,0-592.341,351.941-733.283,683.977
			c-75.514-32.854-168.034-53.31-269.211-53.31c-100.892,0-193.402,20.166-269.216,53.31
			c-140.962-332.036-374.73-683.977-733.283-683.977c-298.612,0-547.367,203.782-616.814,477.616
			c57.927,11.814,116.724,27.377,176.386,46.398c48.132-197.74,227.426-345.614,441.878-345.614
			c262.284,0,457.711,309.871,582.231,616.269C2429.093,1200.349,2392.196,1241.966,2392.196,1306.983z M2757.11,4370.397H1390.006
			c-100.611,0-182.168-80.421-182.168-180.144V2568.317H2757.11v1802.085V4370.397z M3303.608,1306.998
			c0-38.047-13.254-74.07-36.883-106.634c124.51-306.398,319.656-616.269,582.231-616.269
			c251.349,0,455.711,202.078,455.711,450.524c0,248.166-204.362,450.499-455.711,450.499h-660.933
			c71.206-47.542,115.584-109.802,115.584-178.125l0,0L3303.608,1306.998z M2847.911,1396.94c-36.617,0-71.781-2.594-104.06-6.927
			c-8.646-15.577-20.45-29.401-37.757-37.757c-28.521-14.118-59.941-10.095-85.619,4.613c-28.807-14.428-45.833-31.43-45.833-49.871
			c0-49.846,122.511-90.202,273.264-90.202c151.032,0,273.544,40.641,273.544,90.202c0,49.581-122.511,89.937-273.544,89.937l0,0
			L2847.911,1396.94z M4488.269,4190.244c0,99.728-81.561,180.144-182.167,180.144H2939.007V2568.303h1549.267V4190.24
			L4488.269,4190.244z M4762.103,2388.169h-1822.81v-720.874H4579.65c100.872,0,182.458,80.421,182.458,180.144v540.731H4762.103z"
			/>
	</g>
</g>
</svg>
