<?xml version="1.0" standalone="no"?><!DOCTYPE svg PUBLIC "-//W3C//DTD SVG 1.1//EN" "http://www.w3.org/Graphics/SVG/1.1/DTD/svg11.dtd"><svg width="200.1953125" height="200" viewBox="0 0 200.1953125 200" version="1.1" xmlns="http://www.w3.org/2000/svg" xmlns:xlink="http://www.w3.org/1999/xlink"><defs><style type="text/css"><![CDATA[
@font-face { font-family: ifont; src: url(http://at.alicdn.com/t/font_1442373896_4754455.eot?#iefix) format(embedded-opentype), url(http://at.alicdn.com/t/font_1442373896_4754455.woff) format(woff), url(http://at.alicdn.com/t/font_1442373896_4754455.ttf) format(truetype), url(http://at.alicdn.com/t/font_1442373896_4754455.svg#ifont) format(svg); }

]]></style></defs><g class="transform-group"><g transform="scale(0.1953125, 0.1953125)"><path d="M36.555694 598.290166C27.062113 598.290166 17.49579 594.565792 10.335667 587.270976-3.754941 572.745485-3.392656 549.612454 11.142963 535.602931L487.356739 74.316345C501.518662 60.524897 524.017424 60.597588 538.25209 74.316345L1013.005315 535.602931C1027.391171 549.612454 1027.686419 572.745485 1013.734163 587.194006 999.643555 601.719498 976.494394 602.008838 962.108538 587.928051L512.768042 151.305292 61.966998 587.928051C54.885323 594.860832 45.681285 598.290166 36.555694 598.290166L36.555694 598.290166ZM841.4676 939.895037 622.382106 939.895037C602.296678 939.895037 585.866906 923.547981 585.866906 903.403856L585.866906 728.261306 439.813238 728.261306 439.813238 903.403856C439.813238 923.547981 423.456208 939.895037 403.298038 939.895037L184.21825 939.895037C164.06008 939.895037 147.70305 923.547981 147.70305 903.403856L147.70305 576.469859C147.70305 556.325738 164.06008 539.980106 184.21825 539.980106 204.370715 539.980106 220.729171 556.325738 220.729171 576.469859L220.729171 866.914102 366.787117 866.914102 366.787117 691.771552C366.787117 671.62743 383.145574 655.280374 403.298038 655.280374L622.382106 655.280374C642.613018 655.280374 658.898733 671.62743 658.898733 691.771552L658.898733 866.914102 804.950973 866.914102 804.950973 576.469859C804.950973 556.325738 821.382173 539.980106 841.4676 539.980106 861.692806 539.980106 877.978522 556.325738 877.978522 576.469859L877.978522 903.403856C877.978522 923.547981 861.692806 939.895037 841.4676 939.895037L841.4676 939.895037Z" fill="#272636"></path></g></g></svg>