<?xml version="1.0" standalone="no"?><!DOCTYPE svg PUBLIC "-//W3C//DTD SVG 1.1//EN" "http://www.w3.org/Graphics/SVG/1.1/DTD/svg11.dtd"><svg width="200.1953125" height="200" viewBox="0 0 200.1953125 200" version="1.1" xmlns="http://www.w3.org/2000/svg" xmlns:xlink="http://www.w3.org/1999/xlink"><defs><style type="text/css"><![CDATA[
@font-face { font-family: ifont; src: url("//at.alicdn.com/t/font_1442373896_4754455.eot?#iefix") format("embedded-opentype"), url("//at.alicdn.com/t/font_1442373896_4754455.woff") format("woff"), url("//at.alicdn.com/t/font_1442373896_4754455.ttf") format("truetype"), url("//at.alicdn.com/t/font_1442373896_4754455.svg#ifont") format("svg"); }

]]></style></defs><g class="transform-group"><g transform="scale(0.1953125, 0.1953125)"><path d="M569.410688 22.759689l57.166573 52.795969c0.604445 0.860172 1.115899 1.092651 2.092311 1.32513l0.488206 0c0.604445 0 1.208891 0 2.417781 0l76.160103-17.389425c21.295072-4.975049 42.218177-1.092651 60.351535 9.252662l0 0 0 0c17.877631 10.461553 31.849616 27.130293 37.963812 48.053399l23.596613 74.091041c0 1.720344 0.488206 2.324789 0.720685 2.929235l0.278975 0 0 0c0.953164 0.488206 1.208891 0.743933 2.417781 0.976412l0 0 0 0 74.184032 22.992168 0 0c21.31832 6.323427 37.847573 20.551139 48.192886 38.219539 10.182578 18.133358 13.878993 39.405182 8.880696 60.700253l-16.668741 76.043864c-0.488206 1.092651-0.488206 2.185302 0 2.905987 0 0.488206 0.488206 1.232138 1.092651 2.069063l1.813336 2.324789 50.633915 54.725544 0.604445 0c14.57643 16.180535 22.387723 37.010649 22.387723 57.329309 0 20.4349-7.811293 41.125526-22.387723 57.306061l-2.185302 1.952823-50.866394 54.725544 0 0.255727 0 0c-0.604445 0.720685-1.092651 1.208891-1.092651 2.324789l-0.488206 0.488206c0 0.604445 0 1.580857 0.488206 2.301542l16.668741 76.043864c4.998297 21.178832 1.32513 43.078349-8.880696 60.351535-10.345313 17.900879-26.874566 31.896112-48.192886 38.568258l-1.348378 0.371966-72.858902 22.64345c-1.232138 0.604445-1.697096 0.604445-2.417781 1.557609-0.511454 0.604445-0.999659 1.092651-0.999659 2.092311l-23.596613 73.974801c-6.114196 21.295072-20.574387 38.080052-37.963812 48.425365-17.900879 10.322065-39.056463 13.762754-60.351535 9.229414l-76.160103-17.273186-0.488206 0c-0.743933 0-1.952823-0.371966-2.696756 0-0.697437 0-1.208891 0.488206-1.813336 0.953164l-2.301542 2.348037-54.865032 50.587419 0 0.302223c-15.948056 14.553182-36.615434 22.364475-57.329309 22.364475-20.179173 0-41.358005-7.811293-57.306061-22.364475l-2.069063-2.092311-54.748792-51.122121 0 0c-0.976412-0.488206-1.697096-0.953164-2.417781-0.953164l-0.371966 0c-0.488206-0.371966-1.580857-0.371966-2.301542 0l-75.927624 17.273186c-21.527551 4.510092-43.310828 1.092651-60.95598-9.229414l-2.812995-1.697096c-16.296774-10.229074-29.083116-26.525848-35.290304-46.728269l-23.108407-73.974801c-0.255727-0.999659-0.743933-1.464617-1.464617-2.092311l-0.720685-0.953164-1.464617-0.604445-74.32352-22.992168 0 0c-20.690626-6.672146-37.963812-20.690626-48.053399-38.568258l-1.720344-3.045474c-8.996935-17.017459-11.670443-37.10364-7.532318-57.306061l17.505665-76.043864c0-0.953164 0-2.301542 0-2.766499 0-1.115899-0.488206-1.580857-1.580857-2.324789l-2.301542-2.069063-50.145709-54.865032 0 0C7.788045 553.206905 0 532.539527 0 512.104627c0-20.31866 7.788045-41.148774 22.992168-57.329309l1.580857-2.185302 50.866394-54.865032 0 0c1.092651-0.836924 1.580857-1.580857 1.580857-2.069063 0-1.32513 0-1.813336 0-2.905987L76.53207 391.029591l-17.040707-74.32352c-4.626331-21.295072-0.976412-42.590143 9.252662-60.467774l0-0.232479 0 0c10.089586-17.645152 26.897814-31.896112 48.053399-38.219539l1.836584-0.371966 72.510184-22.620202c1.208891-0.232479 1.464617-0.488206 2.185302-0.976412l0.743933-0.604445 0.743933-2.324789 23.108407-74.091041 0 0 0 0c6.207188-21.155584 20.806866-37.591846 38.1033-48.053399l3.394193-1.720344c16.668741-8.648217 37.336119-12.158649 57.53854-7.532318l75.927624 17.389425c0.720685 0 1.813336 0 2.301542 0 1.092651-0.232479 1.813336-0.488206 2.789747-1.32513l2.185302-2.069063 54.632553-50.726907 0 0C470.723374 7.555566 491.902207 0 512.081379 0 532.772006 0 553.462632 7.555566 569.410688 22.759689L569.410688 22.759689zM573.037359 133.349925 573.037359 133.349925l-57.4223-53.028448c-0.720685-0.627693-1.836584-1.092651-3.53368-1.092651-1.208891 0-2.65026 0.488206-3.626672 1.092651L508.198981 80.321477l-54.748792 50.726907-2.301542 2.301542c-10.345313 9.368902-22.52721 16.180535-35.522783 19.597975-12.553863 3.277953-26.642087 3.510432-40.288602 0.488206L299.665364 136.139672c-1.092651-0.232479-2.929235 0-3.394193 0.371966l-0.860172 0.232479c-1.092651 0.488206-1.836584 2.069063-2.557268 3.394193l-22.852681 74.346768c-3.905646 12.158649-10.112834 22.503962-17.900879 31.872864l-2.812995 2.929235c-9.485141 9.229414-21.527551 16.041047-34.778851 20.690626L141.974894 291.993559l-1.952823 1.208891c-1.32513 0-2.417781 1.092651-3.161714 2.185302l0 0c-0.488206 1.208891-1.092651 2.812995-0.488206 4.626331l16.808228 74.346768 0.232479 1.092651c3.045474 13.623266 3.045474 27.618499-0.488206 40.497833-3.673167 13.158308-10.484801 25.316957-19.969942 35.174065l0 0-50.866394 54.865032L80.158741 508.43146c-0.720685 1.208891-1.32513 2.324789-1.32513 3.673167 0 1.464617 0.604445 3.022226 1.32513 3.649919l0 0.604445 0 0 51.23836 54.493065 1.580857 2.069063c10.229074 10.461553 16.808228 22.759689 19.969942 35.522783 3.510432 12.414376 3.510432 26.874566 0.488206 40.381593l-17.040707 75.695146c-0.604445 1.092651 0 2.534021 0 3.626672l0.488206 0.488206c0.720685 1.208891 1.836584 2.324789 3.161714 2.534021l74.463007 22.852681c11.92617 4.161373 23.108407 9.880355 31.872864 18.389085l2.905987 2.069063c9.508389 10.112834 16.808228 21.806525 20.713874 35.290304l22.852681 74.346768c0.232479 1.092651 0.976412 2.301542 2.069063 2.766499l0.488206 0.255727c1.32513 0.836924 2.557268 0.836924 4.254365 0.836924l75.671898-17.273186c13.623266-3.138466 27.50226-3.138466 40.288602 0.511454 13.018821 3.626672 25.409949 10.112834 35.522783 20.179173l54.865032 50.494428 2.417781 2.069063c0.976412 1.092651 2.417781 1.580857 3.626672 1.580857 1.697096 0 2.812995-0.488206 3.53368-1.580857l0 0 0.371966 0 54.748792-50.866394 2.301542-1.697096c9.996595-10.089586 22.015756-16.808228 35.406544-20.179173 13.2513-3.649919 26.525848-3.649919 40.381593-0.511454l75.671898 17.273186c1.604105 0 3.394193 0 4.510092-0.836924 0.836924-0.488206 1.813336-1.673848 2.324789-3.022226l22.759689-74.346768c4.254365-13.483779 11.275229-25.17747 20.667378-35.290304l0 0.604445c9.624628-9.485141 21.31832-16.691988 35.313552-21.062593l72.161466-22.248235 1.929575-0.604445c1.092651-0.232479 2.441029-1.348378 3.184962-2.534021 0.953164-0.976412 0.953164-2.812995 0.488206-4.138125l-17.040707-75.695146c-3.138466-12.902582-3.138466-25.17747-0.348718-37.452359l0.836924-3.394193c3.649919-12.786342 10.345313-24.596273 19.481736-35.313552l0 0.255727 51.331352-54.632553 1.952823-2.534021c0.743933-0.604445 1.092651-2.185302 1.092651-3.649919 0-1.348378-0.348718-2.441029-1.092651-3.673167l0 0-51.215112-55.21375-2.069063-2.069063c-9.136423-9.83386-15.831816-22.015756-19.481736-35.174065l0 0 0-0.348718c-3.626672-12.786342-3.626672-26.525848-0.488206-40.149114l17.040707-75.439419c0.488206-1.836584 0.488206-3.417441-0.488206-4.626331-0.720685-1.092651-2.092311-2.185302-3.184962-2.185302l-74.091041-23.224647 0-0.232479c-13.995233-4.393852-25.665676-11.205485-35.313552-20.4349l0-0.255727c-9.368902-9.485141-16.413014-21.271824-20.667378-34.546372l-22.759689-74.346768c-0.488206-1.348378-1.464617-2.929235-2.324789-3.394193l0 0c-1.115899-0.604445-2.905987-0.860172-4.510092-0.604445l-75.927624 17.273186c-12.646855 2.812995-25.29371 2.812995-36.499195 0.604445l-3.882398-1.092651C595.053116 149.530459 583.382673 142.718826 573.037359 133.349925L573.037359 133.349925zM161.805348 543.605525l36.499195-3.53368c2.185302 12.298136 6.811633 21.295072 13.390787 27.014054 6.788385 5.718982 15.808568 8.624969 27.246533 8.624969 12.04241 0 21.178832-2.534021 27.246533-7.648557 6.207188-5.114537 9.252662-11.089246 9.252662-17.993871 0-4.393852-1.208891-8.043772-3.905646-11.205485-2.557268-3.045474-7.044112-5.695734-13.507027-7.997276-4.370604-1.464617-14.367199-4.277613-30.03628-8.160011-20.086181-4.85881-34.197653-11.065998-42.334416-18.389085-11.437964-10.205826-17.040707-22.620202-17.040707-37.336119 0-9.485141 2.673508-18.249597 8.020524-26.525848 5.347016-8.276251 13.135061-14.483438 23.131655-18.877291 10.205826-4.254365 22.364475-6.439667 36.615434-6.439667 23.340886 0 40.893047 5.114537 52.67973 15.320363 11.809931 10.229074 17.993871 23.85234 18.482076 41.009286l-37.475606 1.580857c-1.580857-9.485141-5.114537-16.436262-10.229074-20.551139-5.323768-4.138125-13.2513-6.323427-23.85234-6.323427-10.949758 0-19.458488 2.324789-25.526189 6.811633-4.021886 2.812995-6.090948 6.718642-6.090948 11.437964 0 4.370604 1.952823 8.160011 5.602743 11.321725 4.85881 3.998638 16.296774 8.136763 34.546372 12.391128 18.249597 4.370604 31.640385 8.764456 40.404841 13.36754 8.741208 4.649579 15.552842 10.973006 20.690626 18.877291 4.85881 8.020524 7.299839 17.900879 7.299839 29.548074 0 10.71728-2.929235 20.713874-8.741208 29.943289-6.090948 9.345654-14.367199 16.157287-25.200718 20.806866-10.833519 4.510092-24.201059 6.695394-40.381593 6.695394-23.480374 0-41.497492-5.347016-54.144347-16.296774C171.801943 580.220959 164.269625 564.412391 161.805348 543.605525zM512.104627 604.073299l-40.75356 0-16.296774-42.194929-74.20728 0-15.343611 42.194929-39.893388 0 72.510184-185.773928 39.684156 0L512.104627 604.073299zM442.988636 530.586704l-25.665676-68.976504-25.084479 68.976504L442.988636 530.586704zM532.888245 604.073299l0-184.193071 37.591846 0 0 152.924652 93.31705 0 0 31.268419L532.888245 604.073299zM690.462476 604.073299l0-185.773928 137.883264 0 0 31.384658-100.26817 0 0 41.241765 93.20081 0 0 31.268419-93.20081 0 0 50.610667 103.662363 0 0 31.268419L690.462476 604.073299z" fill="#272636"></path></g></g></svg>