<?xml version="1.0" encoding="utf-8"?>
<!-- Generator: Adobe Illustrator 19.2.1, SVG Export Plug-In . SVG Version: 6.00 Build 0)  -->
<svg version="1.1" id="图形" xmlns="http://www.w3.org/2000/svg" xmlns:xlink="http://www.w3.org/1999/xlink" x="0px" y="0px"
	 viewBox="15.167 -16.333 1000.636 1000.678" enable-background="new 15.167 -16.333 1000.636 1000.678" xml:space="preserve">
<g>
	<g transform="scale(0.1953125, 0.1953125)">
		<path d="M2982.136,4424.552c-566.646,0-1075.126-243.649-1430.869-630.077l161.899-161.899
			c314.18,345.094,765.527,562.982,1268.97,562.982c948.493,0,1717.455-768.962,1717.455-1717.455S3930.63,760.649,2982.136,760.649
			c-451.118,0-860.33,175.295-1166.839,459.705l-119.993-199.912c343.262-303.302,792.892-488.788,1286.831-488.788
			c1075.012,0,1946.449,871.436,1946.449,1946.448S4057.149,4424.552,2982.136,4424.552z M2867.64,2363.607v228.994H731.241
			l532.182,532.182l-153.54,153.541l-759.916-759.917l40.303-40.303l-40.303-40.303l759.916-759.916l153.54,153.541
			l-532.182,532.182H2867.64z"/>
	</g>
</g>
</svg>
