<?xml version="1.0" encoding="utf-8"?>
<!-- Generator: Adobe Illustrator 19.2.1, SVG Export Plug-In . SVG Version: 6.00 Build 0)  -->
<svg version="1.1" id="图形" xmlns="http://www.w3.org/2000/svg" xmlns:xlink="http://www.w3.org/1999/xlink" x="0px" y="0px"
	 viewBox="15.167 -16.333 1000.636 1000.678" enable-background="new 15.167 -16.333 1000.636 1000.678" xml:space="preserve">
<path d="M905.256,140.089H125.713c-37.996,0-68.783,30.786-68.783,68.783v550.267c0,37.996,30.786,68.783,68.783,68.783h779.543
	c37.996,0,68.783-30.787,68.783-68.783V208.871C974.04,170.875,943.253,140.089,905.256,140.089L905.256,140.089z M928.184,759.138
	c0,12.671-10.256,22.927-22.929,22.927H125.713c-12.673,0-22.927-10.256-22.927-22.927V208.871
	c0-12.672,10.254-22.927,22.927-22.927h779.543c12.673,0,22.929,10.255,22.929,22.927L928.184,759.138L928.184,759.138z
	 M921.827,169.778c-8.778-8.777-23.02-8.777-31.795,0c0,0-251.76,251.153-351.127,350.544
	c-20.151,20.151-26.376,20.465-46.124,0.717c-98.876-98.899-351.843-351.261-351.843-351.261c-8.777-8.777-23.017-8.777-31.794,0
	c-8.777,8.755-8.777,22.973,0,31.728c0,0,251.175,250.614,350.79,350.23c35.803,35.826,76.687,34.414,110.744,0.359
	c99.367-99.367,351.149-350.588,351.149-350.588C930.602,192.751,930.602,178.533,921.827,169.778L921.827,169.778z
	 M417.192,467.951c-8.777-8.754-23.018-8.754-31.795,0L86.216,766.482c-8.777,8.779-8.777,22.995,0,31.749
	c8.777,8.778,23.018,8.778,31.795,0L417.192,499.7C425.969,490.923,425.969,476.728,417.192,467.951L417.192,467.951z
	 M944.752,766.482L645.574,467.951c-8.778-8.754-23.018-8.754-31.795,0c-8.778,8.778-8.778,22.973,0,31.75l299.181,298.53
	c8.778,8.778,22.995,8.778,31.793,0C953.531,789.476,953.531,775.26,944.752,766.482L944.752,766.482z"/>
</svg>
