<?xml version="1.0" encoding="utf-8"?>
<!-- Generator: Adobe Illustrator 19.2.1, SVG Export Plug-In . SVG Version: 6.00 Build 0)  -->
<svg version="1.1" id="图形" xmlns="http://www.w3.org/2000/svg" xmlns:xlink="http://www.w3.org/1999/xlink" x="0px" y="0px"
	 viewBox="15.167 -16.333 1000.636 1000.678" enable-background="new 15.167 -16.333 1000.636 1000.678" xml:space="preserve">
<path d="M245.861,926.673c-50.974,0-93.899-42.925-93.899-93.899V296.208c0-34.877,29.511-64.388,64.388-64.388h59.022
	c37.56,0,67.071-29.511,67.071-67.071v-59.022c0-34.877,29.511-64.388,64.388-64.388h378.279c50.974,0,93.899,42.925,93.899,93.899
	v697.535c0,50.974-42.925,93.899-93.899,93.899H245.861z M216.349,285.477c-5.366,0-10.731,5.366-10.731,10.731v536.566
	c0,21.463,18.78,40.242,40.242,40.242h541.931c21.463,0,40.242-18.78,40.242-40.242V135.238c0-21.463-18.78-40.242-40.242-40.242
	l-380.962,0c-5.366,0-10.731,5.366-10.731,10.731v59.022c0,67.071-53.657,120.727-120.727,120.727H216.349z M476.584,336.45h268.283
	v53.657H476.584C476.584,390.107,476.584,336.45,476.584,336.45z M288.786,457.178h456.081v53.657H288.786
	C288.786,510.834,288.786,457.178,288.786,457.178z M288.786,583.271h456.081v53.657H288.786
	C288.786,636.927,288.786,583.271,288.786,583.271z"/>
</svg>
