<?xml version="1.0" encoding="utf-8"?>
<!-- Generator: Adobe Illustrator 19.2.1, SVG Export Plug-In . SVG Version: 6.00 Build 0)  -->
<svg version="1.1" id="图形" xmlns="http://www.w3.org/2000/svg" xmlns:xlink="http://www.w3.org/1999/xlink" x="0px" y="0px"
	 viewBox="15.167 -16.333 1000.636 1000.678" enable-background="new 15.167 -16.333 1000.636 1000.678" xml:space="preserve">
<g>
	<g transform="scale(0.1953125, 0.1953125)">
		<path d="M4834.215,1632.921H951.522c-323.512,0-585.428,241.94-585.428,539.926V4211.58
			c0,297.986,261.917,539.371,585.428,539.371h3891.573c0,0-47.722-111.537-48.832-172.577
			c-1.665-63.814,118.195-190.333,118.195-190.333v-190.333c0,0-118.195-126.519-118.195-190.333s118.195-190.333,118.195-190.333
			v-190.334c0,0-118.195-126.519-118.195-190.333s118.195-190.333,118.195-190.333v-190.333c0,0-118.195-126.519-118.195-190.334
			s118.195-190.333,118.195-190.333v-190.333c0,0-118.195-126.519-118.195-190.333c0-63.815,118.195-190.334,118.195-190.334
			V1914.26c0,0-118.195-126.519-118.195-190.334C4793.707,1660.112,4834.215,1632.921,4834.215,1632.921L4834.215,1632.921z
			 M4591.166,1878.191v226.403c0,0-118.195,126.519-118.195,190.333s118.195,190.334,118.195,190.334v190.333
			c0,0-118.195,126.519-118.195,190.333s118.195,190.334,118.195,190.334v190.333c0,0-118.195,126.519-118.195,190.333
			s118.195,190.333,118.195,190.333v190.334c0,0-118.195,126.519-118.195,190.333s118.195,190.334,118.195,190.334v198.102
			l-38.843,108.207H917.117c-127.074,0-284.113-170.912-284.113-364.02V2104.038c6.659-80.462,110.427-224.738,213.64-224.738
			L4591.166,1878.191L4591.166,1878.191z M2672.292,3577.32L2672.292,3577.32v-1.11h-461.129v-280.229h461.129v-1.665l0,0
			c55.491,0,99.884-44.948,99.884-99.884c0-55.491-44.948-99.884-99.884-99.884l0,0l0,0h-392.875l430.609-793.519l0,0
			c15.537-21.641,25.526-47.722,25.526-76.022c0-71.583-57.71-129.293-129.293-129.293c-56.046,0-102.658,35.514-120.97,84.901
			h-1.11c0,0-372.344,727.485-389.546,776.872h-4.994c-23.861-61.04-407.303-776.872-407.303-776.872h-1.11
			c-17.757-49.387-64.369-84.901-119.86-84.901c-70.473,0-127.629,57.156-127.629,127.629c0,26.635,7.769,51.052,21.641,71.028
			l-0.555,0.555l428.944,799.623h-400.644c-55.491,0-99.883,44.948-99.883,99.884c0,55.491,44.948,99.884,99.883,99.884v1.665
			h475.557v280.229h-475.557v1.11c-55.491,0-99.883,44.948-99.883,99.884c0,55.491,44.948,99.884,99.883,99.884v1.665h475.557
			v403.419h2.775c-1.665,8.323-2.775,16.647-2.775,25.525c0,69.364,56.046,125.41,125.409,125.41s125.409-56.046,125.409-125.41
			c0-8.878-1.11-17.202-2.775-25.525h3.33v-403.419h461.129v-1.665l0,0c55.491,0,99.884-44.948,99.884-99.884
			C2772.176,3622.268,2727.229,3577.32,2672.292,3577.32L2672.292,3577.32z M3485.233,2165.078
			c0-62.15,61.595-113.201,137.617-113.201l0,0c76.022,0,137.617,50.497,137.617,113.201v168.692
			c0,62.15-61.595,113.201-137.617,113.201l0,0c-76.022,0-137.617-50.497-137.617-113.201V2165.078L3485.233,2165.078z
			 M3485.233,2788.24c0-62.15,61.595-113.201,137.617-113.201l0,0c76.022,0,137.617,50.497,137.617,113.201v168.692
			c0,62.15-61.595,113.201-137.617,113.201l0,0c-76.022,0-137.617-50.497-137.617-113.201V2788.24L3485.233,2788.24z
			 M3485.233,3410.848c0-62.15,61.595-113.201,137.617-113.201l0,0c76.022,0,137.617,50.497,137.617,113.201v168.692
			c0,62.15-61.595,113.201-137.617,113.201l0,0c-76.022,0-137.617-50.497-137.617-113.201V3410.848L3485.233,3410.848z
			 M3485.233,4034.01c0-62.15,61.595-113.201,137.617-113.201l0,0c76.022,0,137.617,50.497,137.617,113.201v168.692
			c0,62.15-61.595,113.202-137.617,113.202l0,0c-76.022,0-137.617-50.497-137.617-113.202V4034.01L3485.233,4034.01z
			 M1311.102,1459.235l114.866-302.425c34.959-72.693,170.357-137.617,266.911-100.993l1063.204,403.418h793.519L1861.571,818.316
			c-302.425-114.866-633.15,17.757-739.138,296.321l-130.958,344.598H1311.102L1311.102,1459.235z M2246.123,768.929l208.091-243.05
			c57.156-56.601,206.426-71.583,285.223-4.439l898.951,769.658l449.476,168.692h180.345L2978.602,354.967
			c-245.824-210.31-601.521-197.547-795.739,28.855l-234.171,273.57L2246.123,768.929L2246.123,768.929z"/>
	</g>
</g>
</svg>
