<?xml version="1.0" encoding="utf-8"?>
<!-- Generator: Adobe Illustrator 19.2.1, SVG Export Plug-In . SVG Version: 6.00 Build 0)  -->
<svg version="1.1" id="图形" xmlns="http://www.w3.org/2000/svg" xmlns:xlink="http://www.w3.org/1999/xlink" x="0px" y="0px"
	 viewBox="15.167 -16.333 1000.636 1000.678" enable-background="new 15.167 -16.333 1000.636 1000.678" xml:space="preserve">
<g>
	<path fill-rule="evenodd" clip-rule="evenodd" d="M721.399,313.88c-12.462-7.184-25.636-13.17-38.496-19.72
		c2.539-2.859,4.745-4.866,6.917-6.909c22.319-21.005,42.356-45.305,52.828-73.971c5.076-13.897,6.33-19.945,9.854-32.849
		c6.558-40.738-0.979-65.507-25.561-86.097c-33.22-27.826-70.911-31.122-110.726-14.786c-2.763,1.133-4.596,1.96-7.349-0.606
		c-51.246-47.739-133.517-48.184-185.116-1.049c-2.412,2.203-4.149,2.758-7.278,1.34c-20.939-9.489-42.823-11.522-65.288-6.947
		c-42.57,8.667-77.785,44.342-71.537,93.063c5.422,42.272,22.054,78.851,50.728,110.385c5.885,6.471,12.141,12.618,18.474,19.169
		c-1.579,0.753-3.142,1.541-4.734,2.259C197.65,363.139,98.714,506.496,87.129,669.559c-3.204,45.09-4.643,85.529,10.968,133.955
		c22.063,68.436,80.298,121.828,154.973,121.659c175.974-0.4,351.952,0.041,527.927-0.227
		c56.531-0.086,100.053-25.081,131.629-70.595c16.049-23.136,33.276-66.34,33.276-113.313c0-46.973-0.979-104.648-14.309-153.655
		C899.204,468.315,829.84,376.394,721.399,313.88L721.399,313.88z M900.819,744.781c-3.86,25.144-8.034,51.512-22.208,72.649
		c-27.883,41.581-81.304,64.417-131.227,64.496c-155.404,0.244-310.811-0.159-466.214,0.207
		c-65.946,0.154-128.145-36.539-144.13-100.169c-10.15-40.398-9.053-90.935-6.223-132.13
		c10.232-148.974,145.021-289.459,274.366-349.737c1.407-0.656-37.28-34.571-42.479-40.483
		c-25.323-28.807-41.135-52.136-45.923-90.754c-5.878-47.414,29.578-61.404,51.036-65.925c19.84-4.179,61.954,16.982,64.083,14.97
		c45.568-43.063,118.221-42.655,163.478,0.959c2.431,2.345,4.05,1.589,6.489,0.554c35.161-14.923,64.897-24.123,94.233,1.299
		c21.708,18.811,22.216,32.785,16.892,62.32c-3.235,12.259-23.313,45.031-30.979,55.187c-28.329,37.527-56.058,61.475-57.969,63.348
		c-0.206,0.202,60.551,28.721,70.71,36.461c93.79,71.452,157.021,126.716,185.623,235.497
		C895.403,630.68,909.795,686.297,900.819,744.781L900.819,744.781L900.819,744.781z M459.313,438.926
		c-7.225-7.626-29.167-30.188-29.167-30.188h-43.041c0,0,0.144,14.713,0.144,19.094c0,4.383,107.301,110.035,107.301,110.035
		H387.105v42.98H494.55v43.298H387.249v42.725h107.457v86.14h43.041l-0.386-86.14H645.35v-42.983H537.747l-0.386-43.041h107.844
		v-42.98H537.361l107.844-110.035v-19.094h-42.896c0,0-37.374,36.152-45.549,45.15c-3.409,2.877-28.252,29.414-40.534,41.616
		L459.313,438.926L459.313,438.926z"/>
</g>
</svg>
