<?xml version="1.0" encoding="utf-8"?>
<!-- Generator: Adobe Illustrator 19.2.1, SVG Export Plug-In . SVG Version: 6.00 Build 0)  -->
<svg version="1.1" id="图形" xmlns="http://www.w3.org/2000/svg" xmlns:xlink="http://www.w3.org/1999/xlink" x="0px" y="0px"
	 viewBox="15.167 -16.333 1000.636 1000.678" enable-background="new 15.167 -16.333 1000.636 1000.678" xml:space="preserve">
<path d="M829.337,363.364c-0.535,48.271-15.95,92.407-36.773,135.002c-31.2,63.829-72.627,120.866-117.654,175.424
	c-41.915,50.79-86.896,98.741-134.905,143.83c-16.777,15.752-32.085,16.235-49.284,0.798
	C401.67,738.494,321.639,650.87,260.549,547.214c-9.942-16.869-18.955-34.259-26.718-52.254
	c-7.357-17.056-1.013-34.897,14.872-42.262c15.93-7.387,34.235-0.907,41.985,15.948c36.512,79.401,89.918,146.869,148.278,210.857
	c22.503,24.672,46.077,48.307,70.48,71.114c3.018,2.818,4.917,5.107,9.205,0.789c80.872-81.487,156.585-167.049,211.707-268.759
	c16.068-29.649,29.465-60.63,33.953-94.391c6.763-50.892-3.458-99.31-27.601-143.969
	c-45.981-85.057-117.352-133.561-214.764-136.982c-110.969-3.894-209.566,67.767-244.492,173.596
	c-8.774,26.586-13.42,53.833-13.782,81.831c-0.258,20.017-13.383,34.151-31.474,34.104c-18.148-0.044-31.399-14.508-31.345-34.204
	c0.41-148.875,102.955-277.844,247.472-311.239c119.566-27.633,247.651,22.057,320.022,124.038
	C808.323,231.762,828.183,294.554,829.337,363.364z M160.911,860.573c236.524,0,471.691,0,707.059,0
	c-0.035-4.065-2.713-6.72-4.41-9.696c-30.686-53.892-61.44-107.749-92.248-161.571c-6.611-11.548-7.021-23.048,0.334-34.216
	c6.626-10.065,16.339-14.935,28.418-14.108c10.855,0.749,19.398,6.08,24.771,15.45c42.05,73.344,84.154,146.659,125.768,220.25
	c12.846,22.721-3.038,46.966-30.053,46.972c-140.732,0.047-281.465,0.022-422.193,0.022c-128.622,0-257.251-0.644-385.862,0.495
	c-28.865,0.258-46.562-26.1-30.695-52.798c41.522-69.859,80.992-140.938,121.324-211.506c8.686-15.196,22.264-21.87,36.483-18.177
	c21.03,5.47,30.182,27.797,19.036,47.51c-21.525,38.078-43.362,75.981-65.049,113.967
	C182.932,821.845,172.313,840.544,160.911,860.573z M640.712,358.1c0.008,69.42-56.637,125.849-126.175,125.692
	c-68.942-0.154-125.174-56.617-125.172-125.684c0.004-69.5,56.509-125.791,126.142-125.661
	C584.446,232.575,640.707,289.039,640.712,358.1z M515.422,295.285c-34.895,0.009-63.154,28.041-63.212,62.7
	c-0.058,35.051,28.631,63.298,63.952,62.966c33.915-0.318,61.858-28.945,61.711-63.22
	C577.727,323.512,549.492,295.277,515.422,295.285z"/>
</svg>
