<?xml version="1.0" encoding="utf-8"?>
<!-- Generator: Adobe Illustrator 19.2.1, SVG Export Plug-In . SVG Version: 6.00 Build 0)  -->
<svg version="1.1" id="图形" xmlns="http://www.w3.org/2000/svg" xmlns:xlink="http://www.w3.org/1999/xlink" x="0px" y="0px"
	 viewBox="0 0 1000.636 1000.678" enable-background="new 0 0 1000.636 1000.678" xml:space="preserve">
<g>
	<g transform="scale(0.1953125, 0.1953125)">
		<path d="M4543.386,1485c-174.142-315.396-423.391-579.995-720.698-765.133c-30.294-19.282-57.253-32.125-90.39-32.125
			c-83.757,0-151.898,72.131-151.898,160.793c0,60.178,31.276,112.726,85.47,143.955
			c524.118,324.638,849.708,925.619,849.708,1568.395c0,642.178-325.278,1242.887-848.593,1567.515
			c-43.316,25.241-89.603,76.929-89.603,146.324c0,88.661,68.265,160.792,152.175,160.792c35.352,0,63.268-15.267,88.891-30.948
			c298.6-184.944,548.888-449.726,723.807-765.711c180.218-325.564,275.477-698.321,275.477-1077.982
			C4817.732,2182.088,4722.867,1810.048,4543.386,1485z M3990.176,2560.89c0-223.503-56.143-442.944-162.347-634.598
			c-103.08-186.008-250.543-341.813-426.45-450.575l-0.542-0.322c-5.12-2.823-50.982-27.593-85.046-27.593
			c-84.365,0-152.998,72.377-152.998,161.335c0,58.306,28.99,112.322,75.747,141.009c274.377,165.37,444.831,476.02,444.831,810.734
			c0,341.701-175.722,655.655-458.6,819.358l-0.501,0.307c-45.699,29.306-72.98,80.882-72.98,137.961
			c0,89.117,68.51,161.621,152.599,161.621l0.813,0.005c0.005,0,0.005,0,0.005,0c35.47,0,75.578-20.847,77.266-21.732l0.573-0.322
			C3757.35,3436.063,3990.176,3015.644,3990.176,2560.89z M2726.273,328.509c-24.683-12.633-52.24-19.313-79.675-19.313
			c-41.264,0-81.762,14.955-113.999,42.093l-0.726,0.609c-26.32,22.182-264.649,222.562-524.174,425.355
			c-468.885,366.675-611.071,432.158-639.017,442.709l-595.533,0c-3.913,0-7.426,0.266-10.695,0.552H457.68
			c-83.91,0-152.169,72.07-152.169,160.66v2361.622c0,88.503,68.264,160.506,152.169,160.506l1021.696,0.296
			c27.148,11.298,160.992,78.877,576.578,438.597c141.848,122.699,305.76,270.332,461.536,415.708
			c4.133,3.856,6.823,6.357,7.958,7.396v0.005c33.332,31.572,76.325,48.957,121.063,48.957c25.522,0,51.473-5.917,75.072-17.134
			c67.364-32.155,112.623-102.772,112.623-175.686c0.015-7.882,1.458-788.062,1.458-803.615c0-15.87-6.506-3282.852-6.572-3315.826
			C2829.087,427.558,2789.694,361.084,2726.273,328.509z M2528.84,3791.875l-2.332,514.411
			c-77.609-69.589-152.707-135.568-223.549-196.375c-568.697-488.925-711.246-529.836-808.505-529.836
			c-1.928,0-3.514,0.24-4.675,0.419c-0.302,0.046-0.604,0.107-0.696,0.128c-0.317-0.026-0.619-0.087-0.921-0.128
			c-1.156-0.179-2.741-0.419-4.67-0.419H715.369c-88.355,0-107.432-21.41-107.432-120.561V1647.061
			c0-69.579,7.437-102.358,75.394-102.358h691.999c94.671,0,239.107-40.436,860.597-523.673
			c94.855-73.752,194.815-153.141,290.468-230.689C2526.646,1089.959,2528.84,3779.994,2528.84,3791.875z"/>
	</g>
</g>
</svg>
