<?xml version="1.0" encoding="utf-8"?>
<!-- Generator: Adobe Illustrator 19.2.1, SVG Export Plug-In . SVG Version: 6.00 Build 0)  -->
<svg version="1.1" id="图形" xmlns="http://www.w3.org/2000/svg" xmlns:xlink="http://www.w3.org/1999/xlink" x="0px" y="0px"
	 viewBox="0 0 1000.636 1000.678" enable-background="new 0 0 1000.636 1000.678" xml:space="preserve">
<g>
	<g transform="scale(0.1953125, 0.1953125)">
		<path d="M4675.394,2853.819c-86.891-19.213-173.208,36.133-192.42,123.883c-58.787,271.855-173.781,523.35-341.826,747.314
			c-641.784,857.433-1861.691,1032.935-2719.124,390.29C1007.072,3804.451,737.511,3350.5,664.099,2836.9
			c-73.986-513.599,56.78-1024.905,367.635-1440.143c642.071-857.146,1861.978-1032.074,2718.55-390.29
			c359.319,268.987,615.689,656.983,722.079,1092.295c21.508,86.89,108.972,139.369,195.862,118.722
			c86.891-20.934,139.942-108.398,118.435-195.575c-123.883-507.864-422.694-960.669-842.234-1274.392
			C2944.755-0.945,1521.818,202.947,772.783,1203.189c-362.473,484.062-515.32,1081.111-429.29,1680.167
			s400.04,1128.714,884.389,1491.474c396.025,296.517,867.183,452.231,1353.54,452.231c108.398,0,217.369-7.743,326.914-23.515
			c599.343-86.03,1129.001-400.327,1491.474-884.389c196.436-262.392,330.642-555.754,399.753-873.492
			C4818.203,2958.776,4762.57,2872.459,4675.394,2853.819z M3202.559,2566.766c88.898,0,160.59-71.692,160.59-160.303
			c0-88.611-71.692-160.302-160.59-160.302h-485.21v-75.706l593.034-619.703c61.368-63.949,60.221-165.464-4.015-226.546
			c-63.949-60.795-163.744-58.5-225.399,5.735l-508.151,534.246l-538.261-537.114c-63.089-62.802-164.031-62.228-226.546,0.287
			c-62.228,62.515-65.383,164.031-2.868,226.546l592.174,593.321v98.935h-474.599c-88.324,0-160.303,71.692-160.303,160.303
			s71.692,160.302,160.303,160.302h474.313v319.745l-474.313,0c-88.324,0-160.303,71.979-160.303,160.303
			c0,88.898,71.692,160.589,160.303,160.589h474.313v475.746c0,88.611,71.692,160.303,159.729,160.303
			c88.898,0,160.59-71.692,160.59-160.303v-475.746h485.209c88.898,0,160.59-71.692,160.59-160.589
			c0-88.324-71.692-160.303-160.59-160.303h-485.21v-319.745H3202.559z"/>
	</g>
</g>
</svg>
