<?xml version="1.0" encoding="utf-8"?>
<!-- Generator: Adobe Illustrator 19.2.1, SVG Export Plug-In . SVG Version: 6.00 Build 0)  -->
<svg version="1.1" id="图形" xmlns="http://www.w3.org/2000/svg" xmlns:xlink="http://www.w3.org/1999/xlink" x="0px" y="0px"
	 viewBox="15.167 -16.333 1000.636 1000.678" enable-background="new 15.167 -16.333 1000.636 1000.678" xml:space="preserve">
<g>
	<g transform="scale(0.1953125, 0.1953125)">
		<path d="M4756.746,2074.922C4756.575,2074.922,4756.575,2074.769,4756.746,2074.922
			c-49.343-70.96-106.503-147.194-165.622-220.247c-2.399-2.884-4.645-5.768-7.043-8.652h1.276l-55.264-65.048l-0.782-0.952
			c-73.512-86.494-145.577-163.537-208.541-222.961c-145.756-137.607-216.869-156.188-267.146-156.188h-775.529
			c-21.455,0-42.605,2.255-63.269,6.72v-343.749c0-166.43-135.325-301.791-301.755-301.791H632.001
			c-166.403,0-301.755,135.361-301.755,301.791V3436.18c0,166.421,135.352,301.782,301.755,301.782h349.31
			c55.749,262.385,291.827,456.191,562.981,456.191c271.324,0,507.411-193.806,563.161-456.191h805.474
			c66.612,0,130.204-21.626,182.575-61.517c52.209,39.892,115.802,61.517,182.422,61.517h75.614
			c55.722,262.385,291.8,456.191,562.981,456.191c271.163,0,507.393-193.806,563.134-456.191h166.897
			c166.403,0,301.755-135.361,301.755-301.782v-958.068c0-42.452-10.898-109.566-95.461-253.903
			C4826.25,2178.729,4793.896,2128.425,4756.746,2074.922L4756.746,2074.922z M1544.463,3955.649
			c-185.783,0-336.822-151.201-336.822-337.037c0-185.81,151.039-337.01,336.822-337.01c185.792,0,337.001,151.201,337.001,337.01
			C1881.465,3804.448,1730.255,3955.649,1544.463,3955.649L1544.463,3955.649z M2976.169,1702.665V3436.18
			c0,34.905-28.346,63.251-63.242,63.251h-805.474c-54.303-258.35-278.216-447.709-545.219-456.037h-1.761v0.161h-0.809h-0.782l0,0
			l0,0h-0.162h-0.638h-0.171h-1.132c-0.458,0-0.952-0.161-1.096,0h-0.979h-1.447h-0.629l0,0h-0.485h-0.323h-0.458h-0.323l0,0h-0.485
			h-0.323h-0.485h-0.323h-0.485l0,0l0,0h-0.314h-0.467h-0.341h-0.467h-0.314h-0.656h-1.105h-1.761l0,0h-0.162h-0.961l0,0h-0.979l0,0
			h-4.007h-0.144h-0.638h-0.171l0,0h-0.315h-0.494h-1.267l0,0h-0.638h-0.314h-0.665h-0.144h-0.638h-0.314h-0.656h-0.153h-0.629
			h-0.171l0,0h-0.638h-0.171h-0.638h-1.123c-267.317,7.853-491.545,197.355-545.856,456.047H632.001
			c-34.932,0-63.278-28.355-63.278-63.278V1063.845c0-34.923,28.346-63.278,63.278-63.278h2280.926
			c34.896,0,63.242,28.355,63.242,63.278V1702.665L2976.169,1702.665z M3916.672,3955.649
			c-185.791,0-336.992-151.201-336.992-337.037c0-185.81,151.201-337.01,336.992-337.01c185.792,0,336.993,151.201,336.993,337.01
			C4253.665,3804.448,4102.311,3955.649,3916.672,3955.649L3916.672,3955.649z M4709.648,3436.18
			c0,34.905-28.346,63.251-63.269,63.251h-166.727c-52.524-246.67-265.7-435.535-519.576-454.591v1.114
			c-0.323,0-0.467-0.144-0.809-0.144c-0.314,0-0.458-0.171-0.781-0.171s-0.485-0.144-0.809-0.144c-0.314,0-0.485-0.171-0.809-0.171
			c-0.144,0-0.458,0-0.8-0.18c-1.276-0.305-2.713-0.458-3.98-0.629h-0.808h-1.617h-0.153h-0.656l0,0h-0.144h-0.494h-0.144h-1.123
			c-1.123,0-2.399,0-3.378-0.153h-0.8h-0.324h-0.458h-0.323l0,0h-0.485h-0.314h-0.494h-0.314h-0.485h-0.324h-0.458h-0.323h-0.485
			h-0.314h-0.494h-0.314h-0.809l0,0c-0.144,0-0.323,0-0.467-0.171h-0.171v-0.638v0.638c-0.171,0-0.315,0-0.494-0.144h-0.306h-0.476
			h-0.333h-0.467v-0.171v-0.171v0.342h-0.315h-0.485h-0.323h-0.485h-0.323h-0.485h-0.467h-0.494h-0.314h-0.494
			c-0.305,0-0.782-0.171-1.267,0h-0.952h-0.809h-0.314h-0.485h-0.323h-0.485h-0.315h-0.467h-0.341h-0.467h-0.314h-0.494h-0.314
			h-0.485h-0.324h-0.638h-1.114h-0.809l0,0h-0.153h-0.808l0,0h-0.8l0,0l0,0h-3.198l0,0h-0.808l0,0h-0.782h-0.341h-0.791l0,0h-0.799
			h-0.324h-0.808l0,0h-0.8l0,0h-3.198v0.144l0,0l-0.809-0.314v0.314h-0.144v-0.314l-0.638,0.485h-0.171v-0.656l-0.638,0.656l0,0
			l-0.809-0.656v0.656l0,0v-0.656l-0.629,0.485h-0.18v-0.485l-0.629,0.342l0,0v-0.342l-0.809,0.171h-3.666h-0.179h-0.485h-0.314
			h-2.713h-0.638h-0.171h-0.638h-0.171l0,0h-2.39h-0.638h-5.13h-0.144h-0.656l0,0l-3.989,0.638l0,0v-0.324h-0.665v0.494h-0.144
			l-0.808-0.494v0.647h-0.162v-0.647l-0.638,0.809l0,0v-0.809h-0.638v0.952h-0.144v-0.952h-0.665
			c-1.761,0.171-3.522,0.171-5.445,0.324c-251.46,21.311-462.075,209.196-514.132,454.133h-75.587
			c-34.932,0-63.279-28.346-63.279-63.278V1702.665c0-34.923,28.346-63.278,63.279-63.278h764.306
			c12.345,6.083,51.572,29.307,132.783,108.444c6.083,5.921,11.995,11.859,18.256,17.951h-367.737
			c-166.412,0-301.755,135.352-301.755,301.782v365.042c0,166.448,135.343,301.782,301.755,301.782h884.26v701.792H4709.648z
			 M4709.648,2495.74h-884.26c-34.923,0-63.278-28.355-63.278-63.287v-365.06c0-34.905,28.355-63.26,63.278-63.26h579.8
			c28.661,35.399,56.531,71.104,82.945,106.35c0.341,0.314,0.665,0.809,0.979,1.294c47.097,62.937,90.492,125.101,125.397,180.042
			l16.172-8.652l-15.049,10.09l33.629-19.865l0,0l-32.991,20.997l16.028,25.786c68.552,112.28,76.719,153.941,77.528,159.386v16.181
			H4709.648z"/>
	</g>
</g>
</svg>
