<?xml version="1.0" encoding="utf-8"?>
<!-- Generated by IcoMoon.io -->
<!DOCTYPE svg PUBLIC "-//W3C//DTD SVG 1.1//EN" "http://www.w3.org/Graphics/SVG/1.1/DTD/svg11.dtd">
<svg version="1.1" xmlns="http://www.w3.org/2000/svg" xmlns:xlink="http://www.w3.org/1999/xlink" width="32" height="32" viewBox="0 0 32 32">
<path d="M31.325 8.287h-30.65c-0.212 0-0.384 0.172-0.384 0.384v14.485c0 0.212 0.172 0.384 0.384 0.384h10.333l4.977 4.872 4.872-4.872h10.467c0.212 0 0.384-0.172 0.384-0.384v-14.485c0-0.212-0.172-0.384-0.384-0.384zM11.093 11.582h6.602v1.506h-4.805v1.974h4.47v1.5h-4.47v2.424h4.975v1.5h-6.773v-8.905zM9.192 20.487h-1.804l-3.59-5.807v5.807h-1.67v-8.905h1.749l3.644 5.946v-5.946h1.67v8.905zM28.052 20.487h-1.907l-1.774-6.657-1.767 6.657h-1.95l-2.126-8.905h1.84l1.342 6.117 1.628-6.117h2.138l1.561 6.22 1.367-6.22h1.81l-2.162 8.905z"></path>
</svg>
