<?xml version="1.0" encoding="utf-8"?>
<!-- Generator: Adobe Illustrator 19.2.1, SVG Export Plug-In . SVG Version: 6.00 Build 0)  -->
<svg version="1.1" id="图形" xmlns="http://www.w3.org/2000/svg" xmlns:xlink="http://www.w3.org/1999/xlink" x="0px" y="0px"
	 viewBox="15.167 -16.333 1000.636 1000.678" enable-background="new 15.167 -16.333 1000.636 1000.678" xml:space="preserve">
<g>
	<path d="M766.238,403.881H382.885v-89.357c0-36.285,13.853-70.373,39.008-95.985c25.026-25.481,58.264-39.514,93.591-39.514
		s68.565,14.033,93.591,39.514c18.708,19.048,31.159,42.786,36.315,68.628h27.399c-12.775-76.701-78.336-135.112-157.306-135.112
		c-88.128,0-159.57,72.739-159.57,162.469v89.357h-50.727V289.414c0-56.491,21.896-109.592,61.655-149.522
		c39.713-39.883,92.502-61.848,148.642-61.848s108.929,21.965,148.642,61.848c39.231,39.399,61.055,91.624,61.628,147.274h40.455
		C765.006,149.125,653.225,37.589,515.485,37.589c-138.488,0-250.753,112.746-250.753,251.825v114.467
		c-50.36,0-91.183,40.998-91.183,91.572v137.358v68.68c0,126.437,102.06,228.932,227.957,228.932h227.958
		c125.897,0,227.957-102.495,227.957-228.932v-68.68V495.453C857.421,444.879,816.597,403.881,766.238,403.881z M816.965,632.811
		v68.68c0,50.377-19.525,97.729-54.979,133.334c-35.408,35.559-82.472,55.142-132.523,55.142H401.506
		c-50.051,0-97.115-19.583-132.523-55.142c-35.454-35.605-54.979-82.958-54.979-133.334v-68.68V495.453
		c0-28.186,22.756-51.117,50.727-51.117h501.506c27.971,0,50.727,22.931,50.727,51.117V632.811z"/>
	<path d="M515.485,564.131c-31.475,0-56.989,25.624-56.989,57.234v45.785c0,31.61,56.858,80.127,56.989,80.127
		c1.556,0,56.989-48.517,56.989-80.127v-45.785C572.474,589.755,546.96,564.131,515.485,564.131z"/>
</g>
</svg>
