<?xml version="1.0" encoding="utf-8"?>
<!-- Generator: Adobe Illustrator 19.2.1, SVG Export Plug-In . SVG Version: 6.00 Build 0)  -->
<svg version="1.1" id="图形" xmlns="http://www.w3.org/2000/svg" xmlns:xlink="http://www.w3.org/1999/xlink" x="0px" y="0px"
	 viewBox="15.167 -16.333 1000.636 1000.678" enable-background="new 15.167 -16.333 1000.636 1000.678" xml:space="preserve">
<g>
	<circle cx="515.485" cy="811.571" r="51.183"/>
	<path d="M771.396,43.839H259.574c-33.921,0-61.419,27.497-61.419,61.419v67.726h41.637v-67.726
		c0-10.908,8.874-19.782,19.782-19.782h511.822c10.908,0,19.782,8.874,19.782,19.782v593.713H239.792V281.412h-41.637v581.342
		c0,33.919,27.497,61.419,61.419,61.419h511.822c33.919,0,61.419-27.499,61.419-61.419V105.258
		C832.814,71.336,805.315,43.839,771.396,43.839z M771.396,882.536H259.574c-10.908,0-19.782-8.874-19.782-19.782V739.917h551.386
		v122.837C791.178,873.662,782.303,882.536,771.396,882.536z"/>
</g>
</svg>
