<?xml version="1.0" encoding="utf-8"?>
<!-- Generated by IcoMoon.io -->
<!DOCTYPE svg PUBLIC "-//W3C//DTD SVG 1.1//EN" "http://www.w3.org/Graphics/SVG/1.1/DTD/svg11.dtd">
<svg version="1.1" xmlns="http://www.w3.org/2000/svg" xmlns:xlink="http://www.w3.org/1999/xlink" width="32" height="32" viewBox="0 0 32 32">
<path d="M15.999 30.369c-7.923 0-14.369-6.446-14.369-14.369s6.445-14.369 14.369-14.369c7.923 0 14.369 6.445 14.369 14.369s-6.446 14.369-14.369 14.369zM15.999 3.693c-6.786 0-12.307 5.521-12.307 12.307 0 6.785 5.521 12.307 12.307 12.307 6.785 0 12.307-5.522 12.307-12.307-0-6.786-5.522-12.307-12.307-12.307zM22.894 12.189c-0.402-0.399-1.053-0.395-1.451 0.008l-7.482 7.564-3.312-3.403c-0.396-0.407-1.046-0.415-1.451-0.021-0.406 0.395-0.416 1.046-0.021 1.451l4.042 4.154c0.002 0.003 0.006 0.003 0.008 0.006 0.002 0.002 0.003 0.006 0.005 0.008 0.065 0.064 0.145 0.103 0.221 0.146 0.040 0.022 0.072 0.058 0.113 0.074 0.124 0.051 0.257 0.077 0.388 0.077 0.13 0 0.261-0.026 0.384-0.075 0.040-0.016 0.071-0.049 0.109-0.070 0.077-0.043 0.157-0.081 0.223-0.146 0.002-0.002 0.003-0.006 0.006-0.008 0.002-0.003 0.005-0.004 0.008-0.006l8.218-8.307c0.399-0.404 0.395-1.054-0.007-1.452z"></path>
</svg>
