<?xml version="1.0" standalone="no"?><!DOCTYPE svg PUBLIC "-//W3C//DTD SVG 1.1//EN" "http://www.w3.org/Graphics/SVG/1.1/DTD/svg11.dtd"><svg t="1487757135746" class="icon" style="" viewBox="0 0 1024 1024" version="1.1" xmlns="http://www.w3.org/2000/svg" p-id="1995" xmlns:xlink="http://www.w3.org/1999/xlink" width="200" height="200"><defs><style type="text/css"></style></defs><path d="M768 630.153846C697.028923 630.153846 636.061538 672.374154 607.783385 732.868923L317.755077 599.04C340.440615 569.344 354.461538 532.558769 354.461538 492.307692c0-40.408615-14.178462-77.272615-37.021538-107.126154l286.011077-143.044923C629.444923 307.751385 693.248 354.461538 768 354.461538 865.673846 354.461538 945.230769 274.904615 945.230769 177.230769S865.673846 0 768 0 590.769231 79.556923 590.769231 177.230769c0 8.900923 1.417846 17.408 2.599385 25.915077l-304.836923 152.418462C258.048 330.673231 219.608615 315.076923 177.230769 315.076923 79.478154 315.076923 0 394.633846 0 492.307692S79.478154 669.538462 177.230769 669.538462c42.456615 0 80.896-15.596308 111.458462-40.566154l306.176 141.154462C592.344615 782.178462 590.769231 794.624 590.769231 807.384615c0 97.673846 79.556923 177.230769 177.230769 177.230769S945.230769 905.058462 945.230769 807.384615 865.673846 630.153846 768 630.153846zM768 39.384615c76.012308 0 137.846154 61.833846 137.846154 137.846154S844.012308 315.076923 768 315.076923 630.153846 253.243077 630.153846 177.230769 691.987692 39.384615 768 39.384615zM177.230769 630.153846C101.218462 630.153846 39.384615 568.32 39.384615 492.307692S101.218462 354.461538 177.230769 354.461538 315.076923 416.295385 315.076923 492.307692 253.243077 630.153846 177.230769 630.153846zM768 945.230769C691.987692 945.230769 630.153846 883.396923 630.153846 807.384615S691.987692 669.538462 768 669.538462s137.846154 61.833846 137.846154 137.846154S844.012308 945.230769 768 945.230769z" p-id="1996"></path></svg>