<?xml version="1.0" standalone="no"?><!DOCTYPE svg PUBLIC "-//W3C//DTD SVG 1.1//EN" "http://www.w3.org/Graphics/SVG/1.1/DTD/svg11.dtd"><svg width="200" height="200" viewBox="0 0 200 200" version="1.1" xmlns="http://www.w3.org/2000/svg" xmlns:xlink="http://www.w3.org/1999/xlink"><defs><style type="text/css"><![CDATA[
@font-face { font-family: ifont; src: url(http://at.alicdn.com/t/font_1442373896_4754455.eot?#iefix) format(embedded-opentype), url(http://at.alicdn.com/t/font_1442373896_4754455.woff) format(woff), url(http://at.alicdn.com/t/font_1442373896_4754455.ttf) format(truetype), url(http://at.alicdn.com/t/font_1442373896_4754455.svg#ifont) format(svg); }

]]></style></defs><g class="transform-group"><g transform="scale(0.1953125, 0.1953125)"><path d="M988.55936 452.64896c0-248.3712-213.37088-449.6896-476.5696-449.6896-263.22944 0-476.60032 201.30816-476.60032 449.6896 0 248.34048 213.37088 449.65888 476.60032 449.65888 42.8032 0 84.04992-5.80608 123.51488-15.79008l195.82976 134.67648-14.36672-223.1296C921.77408 715.58144 988.55936 591.49312 988.55936 452.64896zM581.53984 730.12224l-34.64192 34.0992-78.44864 0-25.53856-25.14944 0-70.00064 14.592-25.11872 93.0304 0 30.98624 30.50496L581.51936 730.12224zM712.87808 380.04736c0 0-162.33472 140.00128-164.15744 170.5472l0 32.29696-91.20768 0 0-102.33856 144.11776-131.05152 0-66.4064c0 0-51.07712-86.1696-142.2848-25.15968 0 0-47.4112 35.93216-60.18048 111.32928 0 0-114.91328 64.6144-100.32128-61.05088 0 0 43.75552-122.07104 158.67904-152.576L574.2592 155.63776c0 0 118.56896 34.0992 138.61888 129.25952L712.87808 380.04736z" fill="#272636"></path></g></g></svg>