<?xml version="1.0" standalone="no"?><!DOCTYPE svg PUBLIC "-//W3C//DTD SVG 1.1//EN" "http://www.w3.org/Graphics/SVG/1.1/DTD/svg11.dtd"><svg width="200" height="200" viewBox="0 0 200 200" version="1.1" xmlns="http://www.w3.org/2000/svg" xmlns:xlink="http://www.w3.org/1999/xlink"><defs><style type="text/css"><![CDATA[
@font-face { font-family: ifont; src: url(http://at.alicdn.com/t/font_1442373896_4754455.eot?#iefix) format(embedded-opentype), url(http://at.alicdn.com/t/font_1442373896_4754455.woff) format(woff), url(http://at.alicdn.com/t/font_1442373896_4754455.ttf) format(truetype), url(http://at.alicdn.com/t/font_1442373896_4754455.svg#ifont) format(svg); }

]]></style></defs><g class="transform-group"><g transform="scale(0.1953125, 0.1953125)"><path d="M769.875124 1024c-5.9031 0-11.8062 0-17.7093 0L628.200725 994.4845c-29.5155-5.9031-59.031-23.6124-76.740299-47.2248L96.921729 439.593105C79.212429 421.883805 61.503129 386.465205 55.60003 356.949706L37.89073 280.209406C31.98763 262.500106 43.79383 244.790806 67.406229 238.887706 85.115529 238.887706 102.824829 250.693906 102.824829 268.403206l17.7093 76.740299C126.437229 356.949706 138.243429 380.562105 144.146529 392.368305l454.538696 507.666596c11.8062 11.8062 29.5155 23.6124 41.3217 23.6124l123.965099 29.5155c5.9031 0 23.6124 0 29.5155-11.8062l112.158899-112.158899c0 0 0-5.9031 0-5.9031l-100.352699-112.158899c0 0-5.9031-5.9031-11.8062 0l-29.5155 17.7093c-23.6124 17.7093-59.031 29.5155-82.643399 29.5155l-17.7093 0c-29.5155 5.9031-70.837199-11.8062-88.546499-35.4186L321.239527 433.690005C297.627128 410.077605 285.820928 374.659005 291.724028 339.240406l5.9031-17.7093c5.9031-23.6124 23.6124-59.031 41.3217-82.643399l23.6124-23.6124c0 0 0-5.9031 0-11.8062L238.596128 73.600908c0 0-5.9031 0-5.9031 0L132.340329 144.438107C120.534129 156.244307 96.921729 156.244307 85.115529 138.535007 73.309329 126.728807 79.212429 103.116408 91.018629 91.310208l100.352699-76.740299c29.5155-23.6124 76.740299-17.7093 100.352699 11.8062l123.965099 135.771299c23.6124 29.5155 23.6124 70.837199 0 100.352699L386.173627 292.015606C380.270527 297.918706 368.464327 321.531106 362.561227 333.337306L362.561227 356.949706c0 11.8062 5.9031 29.5155 11.8062 35.4186l265.639498 301.058098c5.9031 5.9031 23.6124 11.8062 29.5155 11.8062l17.7093 0c17.7093 0 41.3217-11.8062 53.1279-17.7093l29.5155-17.7093c29.5155-23.6124 76.740299-17.7093 100.352699 11.8062l100.352699 112.158899c23.6124 29.5155 23.6124 70.837199-5.9031 100.352699l-112.158899 112.158899C828.906123 1012.1938 799.390623 1024 769.875124 1024L769.875124 1024zM769.875124 1024M651.813125 516.333404c0 0-5.9031 0-5.9031 0C628.200725 510.430304 616.394525 492.721004 616.394525 475.011705 628.200725 421.883805 592.782125 368.755905 539.654226 356.949706 516.041826 356.949706 504.235626 339.240406 510.138726 321.531106 516.041826 297.918706 533.751126 286.112506 551.460425 292.015606c88.546499 17.7093 153.480599 106.255799 135.771299 194.802298C681.328624 504.527204 669.522424 516.333404 651.813125 516.333404L651.813125 516.333404zM651.813125 516.333404M781.681324 475.011705c0 0-5.9031 0-5.9031 0C758.068924 469.108605 746.262724 451.399305 746.262724 433.690005c17.7093-88.546499-53.1279-177.092999-147.577499-194.802298C580.975925 238.887706 569.169725 221.178407 575.072825 203.469107c5.9031-17.7093 23.6124-29.5155 41.3217-29.5155 135.771299 23.6124 224.317798 147.577499 200.705398 271.542598C811.196823 463.205505 799.390623 475.011705 781.681324 475.011705L781.681324 475.011705zM781.681324 475.011705M905.646423 433.690005c0 0-5.9031 0-5.9031 0-17.7093-5.9031-29.5155-23.6124-29.5155-41.3217 23.6124-123.965099-70.837199-247.930198-206.608498-271.542598-17.7093-5.9031-29.5155-23.6124-29.5155-41.3217 5.9031-17.7093 23.6124-29.5155 41.3217-29.5155 171.189899 29.5155 289.251898 188.899198 259.736398 348.282897C935.161922 421.883805 923.355722 433.690005 905.646423 433.690005L905.646423 433.690005zM905.646423 433.690005" fill="#272636"></path></g></g></svg>