<?xml version="1.0" encoding="utf-8"?>
<!-- Generator: Adobe Illustrator 18.0.0, SVG Export Plug-In . SVG Version: 6.00 Build 0)  -->
<!DOCTYPE svg PUBLIC "-//W3C//DTD SVG 1.1//EN" "http://www.w3.org/Graphics/SVG/1.1/DTD/svg11.dtd">
<svg version="1.1" id="图层_1" xmlns="http://www.w3.org/2000/svg" xmlns:xlink="http://www.w3.org/1999/xlink" x="0px" y="0px"
	 viewBox="0 0 200 200" enable-background="new 0 0 200 200" xml:space="preserve">
<g>
	<g transform="scale(0.1953125, 0.1953125)">
		<path fill="#272636" d="M1022.9,993.5l-5.8,36.2H0.1l-3.7-39.3C-4.4,981-23.4,757.2,87,635.7c46.1-50.8,107.1-76.5,181-76.5h20.1
			l12.9,15.5c56.3,67.3,115.1,113.9,210.8,113.9c93,0,143.5-43.3,202.8-115.1l12.9-15.7h20.2c87.3,0,156.3,29.4,205.1,87.2
			C1058.4,770.3,1024.4,984.4,1022.9,993.5z M888.9,697.7c-29.1-34.9-68.7-53.9-121.2-57.6c-60.1,70.8-135,132.5-259.9,132.5
			c-127.7,0-205.4-63.6-263.7-130.7c-40.8,3.7-73.5,19.7-99.5,48.8c-62,69.6-77.3,201.2-77.3,265.1h887.5
			C959,895.5,947.7,768.8,888.9,697.7z M519.8,597.6c-151.2,0-257.3-234.8-257.3-361.9c0-133,115.4-241.3,257.3-241.3
			C661.6-5.7,777,102.6,777,235.6C777,362.8,670.9,597.6,519.8,597.6z M517.8,71.7c-98.9,0-179.4,73-179.4,162.7
			c0,101.1,92.2,289.1,179.4,289.1s179.3-188,179.3-289.1C697.1,144.7,616.7,71.7,517.8,71.7z"/>
	</g>
</g>
</svg>
