<?xml version="1.0" standalone="no"?>
<!DOCTYPE svg PUBLIC "-//W3C//DTD SVG 1.1//EN" "http://www.w3.org/Graphics/SVG/1.1/DTD/svg11.dtd" >
<svg xmlns="http://www.w3.org/2000/svg">
<metadata>Generated by IcoMoon</metadata>
<defs>
<font id="icomoon" horiz-adv-x="1024">
<font-face units-per-em="1024" ascent="960" descent="-64" />
<missing-glyph horiz-adv-x="1024" />
<glyph unicode="&#x20;" horiz-adv-x="512" d="" />
<glyph unicode="&#xe900;" glyph-name="address" d="M498.957-1.088c-10.372 7.043-13.090 21.174-6.047 31.546l271.439 400.501c27.447 43.435 41.964 93.348 41.964 144.303 0 154.561-132.051 280.316-294.357 280.316s-294.335-125.755-294.335-280.339c0-50.841 14.471-100.663 41.42-143.442l187.603-277.327c7.020-10.395 4.28-24.503-6.092-31.524-10.35-6.997-24.503-4.28-31.524 6.092l-187.965 277.917c-31.931 50.637-48.826 108.839-48.826 168.285 0 179.609 152.41 325.745 339.741 325.745s339.741-146.137 339.741-325.745c0-59.559-16.94-117.829-49.392-169.145l-271.824-401.112c-4.393-6.477-11.55-9.964-18.82-9.964-4.393-0.001-8.832 1.29-12.727 3.895zM352.707 576.484c0 87.822 71.427 159.249 159.249 159.249s159.249-71.449 159.249-159.249-71.449-159.226-159.249-159.226c-87.801 0-159.226 71.427-159.249 159.226zM399.449 576.484c0-62.051 50.479-112.53 112.507-112.53s112.507 50.501 112.507 112.53-50.457 112.507-112.507 112.507c-62.029 0-112.507-50.456-112.507-112.507z" />
<glyph unicode="&#xe901;" glyph-name="add-to-ShoppingCart" d="M303.033 146.454c-30.47 0-55.155-24.687-55.155-55.16 0-30.468 24.683-55.153 55.155-55.153 30.474 0 55.154 24.685 55.154 55.153 0 30.473-24.68 55.16-55.154 55.16zM743.829 229.181h-447.937c-11.694 0-23.274 10.785-24.818 23.581l-46.966 330.678-26.557 153.299c-4.882 40.127-40.209 71.565-80.444 71.565h-35.132c-15.224 0-27.578-12.354-27.578-27.578 0-15.22 12.353-27.574 27.578-27.574h35.132c11.968 0 24.211-10.98 25.866-24.407l26.611-153.881 46.771-329.273c4.856-40.128 39.794-71.564 79.535-71.564h447.937c15.25 0 27.581 12.328 27.581 27.577s-12.331 27.576-27.58 27.576zM689.116 146.454c-30.472 0-55.157-24.687-55.157-55.16 0-30.468 24.685-55.153 55.157-55.153 30.47 0 55.154 24.685 55.154 55.153 0 30.473-24.682 55.16-55.154 55.16zM963.99 691.177c-18.036 81.262-81.851 145.076-163.113 163.113-111.514 24.751-213.007-35.646-252.023-128.719h-273.84c-15.225 0-27.579-12.354-27.579-27.574 0-15.225 12.354-27.578 27.579-27.578h258.865c-3.407-25.385-2.462-52.149 3.612-79.516 18.036-81.262 81.851-145.076 163.113-163.113 11.594-2.574 23.080-4.22 34.398-5.012l-5.707-32.657c-1.513-12.27-13.098-23.055-26.83-23.136l-374.119-27.578c-15.166-1.102-26.581-14.314-25.455-29.507 1.050-14.534 13.159-25.564 27.47-25.564l0.003-0.002c0.66 0 1.351 0.027 2.039 0.082l372.071 27.494c39.739 0 74.652 31.439 79.341 70.099l7.694 44.006c116.872 22.028 200.931 136.976 172.479 265.162zM900.616 641.041c0-15.191-12.429-27.621-27.621-27.621h-94.633v-94.633c0-15.191-12.429-27.621-27.621-27.621s-27.621 12.429-27.621 27.621v94.633h-94.632c-15.191 0-27.621 12.429-27.621 27.621v0c0 15.191 12.429 27.621 27.621 27.621h94.633v94.633c0 15.191 12.429 27.621 27.621 27.621s27.621-12.429 27.621-27.621v-94.633h94.633c15.191 0 27.62-12.429 27.62-27.621v0z" />
<glyph unicode="&#xe902;" glyph-name="arrow-bottom" d="M979.289 655.721l-49.408 49.283-417.902-416.857-417.896 416.857-49.414-49.283 465.896-464.725 1.417 1.414 1.417-1.414z" />
<glyph unicode="&#xe903;" glyph-name="arrow-left" d="M719.698 915.31l-464.724-465.896 1.413-1.417-1.413-1.417 464.724-465.89 49.284 49.408-416.857 417.902 416.857 417.896z" />
<glyph unicode="&#xe904;" glyph-name="arrow-right" d="M304.259-19.31l464.724 465.896-1.413 1.417 1.413 1.417-464.724 465.89-49.284-49.408 416.857-417.902-416.857-417.896z" />
<glyph unicode="&#xe905;" glyph-name="arrow-top" d="M44.668 240.28l49.408-49.284 417.901 416.857 417.897-416.857 49.414 49.284-465.896 464.724-1.417-1.414-1.417 1.414z" />
<glyph unicode="&#xe906;" glyph-name="cart" d="M866.659 234.521h-478.127c-66.119 0-95.739 52.556-102.867 82.428l-136.293 455.229c-0.358 1.21-0.264 0.616-0.413 1.348-2.937 8.647-11.562 22.348-36.682 22.348h-65.525c-25.819 0-46.753 20.934-46.753 46.753s20.934 46.753 46.753 46.753h65.525c80.992 0 118.153-58.925 126.882-91.091l136.54-456.060c0.572-1.92 0.66-1.848 0.93-3.504 3.064-10.704 9.461-10.704 11.897-10.704h475.707c1.375 2.448 2.629 6.232 2.712 6.738 0.033 0.22 0.072 0.44 0.116 0.66l61.312 345.536h-513.28c-25.819 0-46.753 20.934-46.753 46.753s20.934 46.753 46.753 46.753h536.568c22.59 0 42.364-8.988 55.68-25.307 21.809-26.721 17.431-61.246 15.269-72.335l-63.43-357.455c-6.809-40.939-38.601-84.843-92.521-84.843zM410.951 74.253c0-37.352 30.28-67.632 67.632-67.632s67.632 30.28 67.632 67.632c0 37.352-30.28 67.632-67.632 67.632s-67.632-30.28-67.632-67.632zM691.468 74.253c0-37.352 30.28-67.632 67.632-67.632s67.632 30.28 67.632 67.632c0 37.352-30.28 67.632-67.632 67.632s-67.632-30.28-67.632-67.632z" />
<glyph unicode="&#xe907;" glyph-name="close-ico" d="M176.662 142.827c-8.189-8.471-7.96-21.977 0.511-30.166s21.977-7.96 30.166 0.511l618.667 640c8.189 8.471 7.96 21.977-0.511 30.166s-21.977 7.96-30.166-0.511l-618.667-640zM795.328 113.173c8.189-8.471 21.694-8.7 30.166-0.511s8.7 21.694 0.511 30.166l-618.667 640c-8.189 8.471-21.694 8.7-30.166 0.511s-8.7-21.694-0.511-30.166l618.667-640z" />
<glyph unicode="&#xe908;" glyph-name="close-round" d="M511.976 888.192c-243.128 0-440.205-197.077-440.205-440.178 0-243.156 197.077-440.205 440.205-440.205s440.206 197.049 440.206 440.205c0 243.101-197.077 440.178-440.206 440.178zM511.976 62.78c-212.713 0-385.179 172.44-385.179 385.18 0 212.742 172.466 385.18 385.179 385.18s385.179-172.439 385.179-385.18c0-212.74-172.464-385.18-385.179-385.18zM695.299 631.523c-12.656 12.628-33.184 12.628-45.839 0l-138.316-137.94-136.354 136.005c-12.576 12.52-32.941 12.52-45.516 0-12.545-12.547-12.545-32.887 0-45.407l136.356-136.006-137.297-136.917c-12.653-12.657-12.653-33.157 0-45.786 12.683-12.601 33.21-12.601 45.891 0l137.295 136.975 136.329-136.061c12.575-12.518 32.941-12.518 45.514 0 12.575 12.573 12.575 32.887 0 45.432l-136.329 136.007 138.265 137.914c12.681 12.628 12.681 33.155 0.001 45.783z" />
<glyph unicode="&#xe909;" glyph-name="consult" d="M930.089 377.79l-0.621-93.842-59.317-0.425c58.892 1.209 59.937 11.204 59.937 94.266zM837.195 283.295l32.957 0.229c-9.505-0.196-20.153-0.229-32.957-0.229zM791.074 519.549l-94.724-0.425c-25.641 0-46.447 21.166-46.447 47.264s20.807 47.231 46.447 47.231l94.724 0.425c25.673 0 46.447-21.133 46.447-47.231s-20.774-47.264-46.447-47.264zM558.805 614.044c25.673 0 46.447-21.133 46.447-47.231s-20.774-47.264-46.447-47.264l-94.724-0.425c-25.641 0-46.447 21.166-46.447 47.264s20.807 47.231 46.447 47.231l94.724 0.425zM94.952 342.187c-0.196 10.191-0.229 21.558-0.229 35.603l0.229-35.603zM160.638 283.491l-65.294 0.457-0.392 58.239c0.98-50.204 8.721-57.618 65.686-58.696zM231.812 613.62l94.724 0.425c25.673 0 46.447-21.133 46.447-47.231s-20.774-47.264-46.447-47.264l-94.724-0.425c-25.641 0-46.447 21.166-46.447 47.264s20.807 47.231 46.447 47.231zM931.232 188.833h-49.354v-0.098l-350.707-0.327-220.739-223.123c-18.161-18.455-47.558-18.455-65.719 0-18.128 18.455-18.128 48.374 0 66.829l230.048 232.53c8.525 10.844 21.068 18.259 35.799 18.259h1.143c0.229 0 0.457 0 0.719 0l417.764 0.359-0.327 494.817c-1.045 61.636-8.852 70.912-62.289 72.055l61.897-0.425 0.392-56.246-0.033 56.802-74.766-0.033c4.116 0 8.819-0.033 12.51-0.098l-15.776 0.098-697.591-0.327c-50.367-1.601-59.088-11.008-60.525-58.827l0.327-508.111 186.083 0.359c25.641 0 46.447-21.166 46.447-47.264s-20.807-47.231-46.447-47.231l-137.153-0.261v0.261h-49.354c-49.91 0-90.314 40.111-92.503 90.347l-0.359 571.609c0.261 50.53 39.523 91.359 88.746 93.613l842.029 0.392c46.382-0.163 84.435-34.917 91.229-80.189l0.359-591.729c-5.161-47.199-44.063-84.043-91.849-84.043zM93.646 849.906v-33.578l0.229 33.382 28.972 0.196h-29.201z" />
<glyph unicode="&#xe90a;" glyph-name="delete" d="M575.884 224.708v350.881c0 40.891 63.881 40.891 63.881 0v-350.881c-0.001-40.894-63.881-40.894-63.881 0v0 0zM384.183 224.708v350.881c0 40.891 63.91 40.891 63.91 0v-350.881c0-40.894-63.91-40.894-63.91 0v0 0zM927.319 735.089h-159.734v63.821c0 52.837-42.956 95.678-94.86 95.678h-320.483c-52.922 0-95.848-42.841-95.848-95.678v-63.821h-159.735c-40.952 0-40.952-63.765 0-63.765h830.659c40.921-0.001 40.921 63.765 0.001 63.765v0 0zM320.303 798.909c0 16.947 14.968 31.913 31.938 31.913h320.483c16.972 0 30.95-12.965 30.95-31.913v-63.821h-383.372v63.821zM735.617 1.415h-447.286c-52.893 0-95.819 42.837-95.819 95.674v478.502c0 18.948 14.968 31.912 31.938 31.912 16.975 0 31.943-12.964 31.943-31.912v-478.502c0-16.913 14.996-31.878 31.938-31.878h447.286c16.972 0 31.968 14.967 31.968 31.878v477.512c0 41.878 63.881 41.878 63.881 0v-477.514c0.001-52.836-42.926-95.673-95.848-95.673v0z" />
<glyph unicode="&#xe90b;" glyph-name="edit" d="M948.059 803.148c-16.059 16.059-42.096 16.059-58.153 0l-407.063-407.045c-16.059-16.056-16.059-42.091 0-58.15 16.057-16.056 42.093-16.056 58.151 0l407.065 407.045c16.057 16.059 16.057 42.093 0 58.15zM797.26 366.516c-22.501 0-40.745-18.24-40.745-40.743v-203.715c0-22.502-18.241-40.743-40.745-40.743h-529.682c-22.503 0-40.745 18.24-40.745 40.743v651.887c0 22.5 18.241 40.743 40.745 40.743h407.447c22.503 0 40.745 18.24 40.745 40.743 0 22.5-18.241 40.743-40.745 40.743h-448.192c-45.005 0-81.489-36.483-81.489-81.486v-733.374c0-45.003 36.484-81.488 81.489-81.488h611.171c45.007 0 81.489 36.485 81.489 81.488v244.459c0 22.502-18.241 40.743-40.745 40.743z" />
<glyph unicode="&#xe90c;" glyph-name="fav" d="M511.963 28.328c-12.677 0-25.182 4.27-35.213 12.021-6.804 5.26-68.575 53.28-141.471 119.179-97.172 87.847-166.87 164.436-207.16 227.64-18.28 28.704-35.801 57.11-49.297 89.113-16.097 38.168-23.921 75.917-23.921 115.407 0 72.751 26.133 141.396 73.588 193.288 48.769 53.33 114.020 82.7 183.736 82.7 78.043 0 151.378-38.253 199.749-102.126 48.385 63.87 121.725 102.126 199.755 102.126 69.706 0 134.954-29.37 183.724-82.699 47.462-51.898 73.6-120.542 73.6-193.289 0-89.59-42.334-156.014-73.246-204.515-40.277-63.206-109.972-139.797-207.15-227.646-72.898-65.9-134.677-113.922-141.482-119.18-10.037-7.751-22.54-12.019-35.212-12.019zM312.225 813.863c-54.425 0-105.573-23.156-144.023-65.203-38.361-41.948-59.487-97.696-59.487-156.972 0-32.167 6.44-63.076 19.691-94.495 11.872-28.148 28.106-54.428 45.098-81.107 91.105-142.922 326.191-325.456 336.155-333.157 0.841-0.65 1.717-0.786 2.304-0.786s1.464 0.137 2.31 0.79c9.959 7.695 245.070 190.232 336.15 333.16 30.382 47.67 64.814 101.695 64.814 175.595 0 59.271-21.13 115.019-59.496 156.972-38.453 42.045-89.597 65.202-144.013 65.202-72.247 0-139.685-42.46-175.997-110.809-4.669-8.79-13.81-14.284-23.762-14.284-0.001 0-0.002 0-0.003 0-9.953 0.001-19.093 5.497-23.762 14.289-36.289 68.347-103.721 110.805-175.978 110.805z" />
<glyph unicode="&#xe90d;" glyph-name="gift" d="M462.595 682.067c0-11.904 6.628-22.12 17.224-30.879-0.173-0.058-0.229-0.171-0.401-0.228-23.677-7.375-69.593-6.338-153.699 39.636-187.11 102.367-269.665 3.973-270.59 2.936-6.338-7.718-5.124-19.065 2.651-25.29 7.78-6.223 19.241-5.124 25.636 2.651 0.69 0.865 63.888 76.159 224.615-11.752 57.836-31.686 106.978-47.526 146.614-47.526 8.007 0 15.554 0.919 22.753 2.133 0.576-1.213 1.385-2.479 1.961-3.631h56.109v-144.078h-364.316v108.073c0 19.932 16.302 36.004 36.469 36.004h120.918c-12.329 5.706-24.942 11.867-37.965 19.009-12.153 6.627-23.962 12.213-35.486 17.053h-47.467c-40.268 0-72.878-32.317-72.878-72.068v-144.078h54.672v-324.162c0-39.812 32.607-72.072 72.877-72.072h582.879c40.268 0 72.878 32.261 72.878 72.072v323.986h54.842l-0.291 144.196 0.002-0.004c0 39.751-32.604 72.068-72.873 72.068h-56.631c23.681 22.812 38.427 54.672 38.427 90.041 0.001 69.593-57.088 126.049-127.485 126.049-71.667 0-118.388-70.341-146.557-136.703-15.093 6.566-33.584 10.655-53.806 10.655-20.165 0-38.654-4.030-53.807-10.655-28.173 66.362-74.895 136.703-146.557 136.703-59.682 0-109.399-40.729-123.279-95.458 11.578-2.361 23.329-5.472 35.253-9.273 9.62 39.521 45.454 69.076 88.316 69.076 52.421 0 91.48-61.932 116.367-123.17 0 0-7.374-8.318-7.374-21.312zM535.528 69.799h-273.236c-20.109 0-36.409 16.073-36.409 36.004v324.167h309.644v-360.172zM644.753 682.064c0 7.604-2.649 14.804-7.372 21.312 24.885 61.238 63.888 123.17 116.367 123.17 50.236 0 91.080-40.388 91.080-90.044 0-49.6-40.845-90.039-91.080-90.039h-132.097c14.232 9.502 23.101 21.946 23.101 35.601v0-0.001zM553.676 664.088c-7.318 0-14.346 0.518-20.798 1.384-1.728 3.113-4.087 5.876-7.546 7.546-5.7 2.822-11.98 2.018-17.112-0.922-5.757 2.884-9.16 6.282-9.16 9.967 0 9.962 24.486 18.028 54.616 18.028 30.186 0 54.672-8.123 54.672-18.028 0-9.909-24.486-17.975-54.672-17.975v0l0.001-0.001zM881.525 105.805c0-19.932-16.301-36.004-36.409-36.004h-273.234v360.173h309.643v-324.168l-0.001-0.001zM936.255 465.976h-364.315v144.077h327.849c20.161 0 36.467-16.073 36.467-36.004v-108.073h-0.001z" />
<glyph unicode="&#xe90e;" glyph-name="home" horiz-adv-x="1025" d="M36.556 361.71c-9.494 0-19.060 3.724-26.22 11.019-14.091 14.525-13.728 37.659 0.807 51.668l476.214 461.287c14.162 13.791 36.661 13.719 50.895 0l474.753-461.287c14.386-14.010 14.681-37.143 0.729-51.591-14.091-14.525-37.24-14.815-51.626-0.734l-449.34 436.623-450.801-436.623c-7.082-6.933-16.286-10.362-25.411-10.362v0zM841.468 20.105h-219.085c-20.085 0-36.515 16.347-36.515 36.491v175.143h-146.054v-175.143c0-20.144-16.357-36.491-36.515-36.491h-219.080c-20.158 0-36.515 16.347-36.515 36.491v326.934c0 20.144 16.357 36.49 36.515 36.49 20.152 0 36.511-16.346 36.511-36.49v-290.444h146.058v175.143c0 20.144 16.358 36.491 36.511 36.491h219.084c20.231 0 36.517-16.347 36.517-36.491v-175.143h146.052v290.444c0 20.144 16.431 36.49 36.517 36.49 20.225 0 36.511-16.346 36.511-36.49v-326.934c0-20.144-16.286-36.491-36.511-36.491v0z" />
<glyph unicode="&#xe90f;" glyph-name="hot-sales" horiz-adv-x="1025" d="M569.411 937.24l57.167-52.796c0.604-0.86 1.116-1.093 2.092-1.325h0.488c0.604 0 1.209 0 2.418 0l76.16 17.389c21.295 4.975 42.218 1.093 60.352-9.253v0 0c17.878-10.462 31.85-27.13 37.964-48.053l23.597-74.091c0-1.72 0.488-2.325 0.721-2.929h0.279c0.953-0.488 1.209-0.744 2.418-0.976v0 0l74.184-22.992c21.318-6.323 37.848-20.551 48.193-38.22 10.183-18.133 13.879-39.405 8.881-60.7l-16.669-76.044c-0.488-1.093-0.488-2.185 0-2.906 0-0.488 0.488-1.232 1.093-2.069l1.813-2.325 50.634-54.726h0.604c14.576-16.181 22.388-37.011 22.388-57.329 0-20.435-7.811-41.126-22.388-57.306l-2.185-1.953-50.866-54.726v-0.256c-0.604-0.721-1.093-1.209-1.093-2.325l-0.488-0.488c0-0.604 0-1.581 0.488-2.302l16.669-76.044c4.998-21.179 1.325-43.078-8.881-60.352-10.345-17.901-26.875-31.896-48.193-38.568l-1.348-0.372-72.859-22.643c-1.232-0.604-1.697-0.604-2.418-1.558-0.511-0.604-1-1.093-1-2.092l-23.597-73.975c-6.114-21.295-20.574-38.080-37.964-48.425-17.901-10.322-39.056-13.763-60.352-9.229l-76.16 17.273h-0.488c-0.744 0-1.953 0.372-2.697 0-0.697 0-1.209-0.488-1.813-0.953l-2.302-2.348-54.865-50.587v-0.302c-15.948-14.553-36.615-22.364-57.329-22.364-20.179 0-41.358 7.811-57.306 22.364l-2.069 2.092-54.749 51.122c-0.976 0.488-1.697 0.953-2.418 0.953h-0.372c-0.488 0.372-1.581 0.372-2.302 0l-75.928-17.273c-21.528-4.51-43.311-1.093-60.956 9.229l-2.813 1.697c-16.297 10.229-29.083 26.526-35.29 46.728l-23.108 73.975c-0.256 1-0.744 1.465-1.465 2.092l-0.721 0.953-1.465 0.604-74.324 22.992c-20.691 6.672-37.964 20.691-48.053 38.568l-1.72 3.045c-8.997 17.017-11.67 37.104-7.532 57.306l17.506 76.044c0 0.953 0 2.302 0 2.766 0 1.116-0.488 1.581-1.581 2.325l-2.302 2.069-50.146 54.865c-15.158 16.274-22.946 36.941-22.946 57.376 0 20.319 7.788 41.149 22.992 57.329l1.581 2.185 50.866 54.865c1.093 0.837 1.581 1.581 1.581 2.069 0 1.325 0 1.813 0 2.906l-0.488 1.72-17.041 74.324c-4.626 21.295-0.976 42.59 9.253 60.468v0.232c10.090 17.645 26.898 31.896 48.053 38.22l1.837 0.372 72.51 22.62c1.209 0.232 1.465 0.488 2.185 0.976l0.744 0.604 0.744 2.325 23.108 74.091c6.207 21.156 20.807 37.592 38.103 48.053l3.394 1.72c16.669 8.648 37.336 12.159 57.539 7.532l75.928-17.389c0.721 0 1.813 0 2.302 0 1.093 0.232 1.813 0.488 2.79 1.325l2.185 2.069 54.633 50.727c15.925 15.204 37.104 22.76 57.283 22.76 20.691 0 41.381-7.556 57.329-22.76v0zM573.037 826.65v0l-57.422 53.028c-0.721 0.628-1.837 1.093-3.534 1.093-1.209 0-2.65-0.488-3.627-1.093h-0.256l-54.749-50.727-2.302-2.302c-10.345-9.369-22.527-16.181-35.523-19.598-12.554-3.278-26.642-3.51-40.289-0.488l-75.672 17.296c-1.093 0.232-2.929 0-3.394-0.372l-0.86-0.232c-1.093-0.488-1.837-2.069-2.557-3.394l-22.853-74.347c-3.906-12.159-10.113-22.504-17.901-31.873l-2.813-2.929c-9.485-9.229-21.528-16.041-34.779-20.691l-72.533-22.016-1.953-1.209c-1.325 0-2.418-1.093-3.162-2.185v0c-0.488-1.209-1.093-2.813-0.488-4.626l16.808-74.347 0.232-1.093c3.045-13.623 3.045-27.618-0.488-40.498-3.673-13.158-10.485-25.317-19.97-35.174v0l-50.866-54.865-1.93-2.441c-0.721-1.209-1.325-2.325-1.325-3.673 0-1.465 0.604-3.022 1.325-3.65v-0.604l51.238-54.493 1.581-2.069c10.229-10.462 16.808-22.76 19.97-35.523 3.51-12.414 3.51-26.875 0.488-40.382l-17.041-75.695c-0.604-1.093 0-2.534 0-3.627l0.488-0.488c0.721-1.209 1.837-2.325 3.162-2.534l74.463-22.853c11.926-4.161 23.108-9.88 31.873-18.389l2.906-2.069c9.508-10.113 16.808-21.807 20.714-35.29l22.853-74.347c0.232-1.093 0.976-2.302 2.069-2.766l0.488-0.256c1.325-0.837 2.557-0.837 4.254-0.837l75.672 17.273c13.623 3.138 27.502 3.138 40.289-0.511 13.019-3.627 25.41-10.113 35.523-20.179l54.865-50.494 2.418-2.069c0.976-1.093 2.418-1.581 3.627-1.581 1.697 0 2.813 0.488 3.534 1.581v0h0.372l54.749 50.866 2.302 1.697c9.997 10.090 22.016 16.808 35.407 20.179 13.251 3.65 26.526 3.65 40.382 0.511l75.672-17.273c1.604 0 3.394 0 4.51 0.837 0.837 0.488 1.813 1.674 2.325 3.022l22.76 74.347c4.254 13.484 11.275 25.177 20.667 35.29v-0.604c9.625 9.485 21.318 16.692 35.314 21.063l74.091 22.853c1.093 0.232 2.441 1.348 3.185 2.534 0.953 0.976 0.953 2.813 0.488 4.138l-17.041 75.695c-3.138 12.903-3.138 25.177-0.349 37.452l0.837 3.394c3.65 12.786 10.345 24.596 19.482 35.314v-0.256l51.331 54.633 1.953 2.534c0.744 0.604 1.093 2.185 1.093 3.65 0 1.348-0.349 2.441-1.093 3.673v0l-51.215 55.214-2.069 2.069c-9.136 9.834-15.832 22.016-19.482 35.174v0 0.349c-3.627 12.786-3.627 26.526-0.488 40.149l17.041 75.439c0.488 1.837 0.488 3.417-0.488 4.626-0.721 1.093-2.092 2.185-3.185 2.185l-74.091 23.225v0.232c-13.995 4.394-25.666 11.205-35.314 20.435v0.256c-9.369 9.485-16.413 21.272-20.667 34.546l-22.76 74.347c-0.488 1.348-1.465 2.929-2.325 3.394v0c-1.116 0.604-2.906 0.86-4.51 0.604l-75.928-17.273c-12.647-2.813-25.294-2.813-36.499-0.604l-3.882 1.093c-13.112 3.417-24.782 10.229-35.128 19.598v0zM161.805 416.394l36.499 3.534c2.185-12.298 6.812-21.295 13.391-27.014 6.788-5.719 15.809-8.625 27.247-8.625 12.042 0 21.179 2.534 27.247 7.649 6.207 5.115 9.253 11.089 9.253 17.994 0 4.394-1.209 8.044-3.906 11.205-2.557 3.045-7.044 5.696-13.507 7.997-4.371 1.465-14.367 4.278-30.036 8.16-20.086 4.859-34.198 11.066-42.334 18.389-11.438 10.206-17.041 22.62-17.041 37.336 0 9.485 2.674 18.25 8.021 26.526s13.135 14.483 23.132 18.877c10.206 4.254 22.364 6.44 36.615 6.44 23.341 0 40.893-5.115 52.68-15.32 11.81-10.229 17.994-23.852 18.482-41.009l-37.476-1.581c-1.581 9.485-5.115 16.436-10.229 20.551-5.324 4.138-13.251 6.323-23.852 6.323-10.95 0-19.458-2.325-25.526-6.812-4.022-2.813-6.091-6.719-6.091-11.438 0-4.371 1.953-8.16 5.603-11.322 4.859-3.999 16.297-8.137 34.546-12.391 18.25-4.371 31.64-8.764 40.405-13.368 8.741-4.65 15.553-10.973 20.691-18.877 4.859-8.021 7.3-17.901 7.3-29.548 0-10.717-2.929-20.714-8.741-29.943-6.091-9.346-14.367-16.157-25.201-20.807-10.834-4.51-24.201-6.695-40.382-6.695-23.48 0-41.497 5.347-54.144 16.297-12.647 10.857-20.179 26.665-22.643 47.472zM512.105 355.927h-40.754l-16.297 42.195h-74.207l-15.344-42.195h-39.893l72.51 185.774h39.684l74.3-185.774zM442.989 429.413l-25.666 68.977-25.084-68.977h50.75zM532.888 355.927v184.193h37.592v-152.925h93.317v-31.268h-130.909zM690.462 355.927v185.774h137.883v-31.385h-100.268v-41.242h93.201v-31.268h-93.201v-50.611h103.662v-31.268h-141.277z" />
<glyph unicode="&#xe910;" glyph-name="level" d="M817.742 56.913c7.128-37.249-14.603-53.806-48.521-37.025l-250.065 124.172-245.469-136.59c-33.343-18.509-55.644-2.989-49.899 34.608l42.539 277.32-203.846 190.627c-27.71 25.869-19.775 51.966 17.706 58.406l276.282 47.251 119.459 254.44c16.209 34.377 43.458 35.066 60.817 1.377l128.314-248.113 277.773-33.343c37.597-4.596 46.451-30.237 19.775-57.486l-196.95-200.626 52.083-275.018z" />
<glyph unicode="&#xe911;" glyph-name="logout" d="M580.503 58.976c-113.252 0-214.88 48.697-285.98 125.93l32.358 32.358c62.793-68.972 153.002-112.52 253.622-112.52 189.57 0 343.258 153.688 343.258 343.258s-153.688 343.258-343.258 343.258c-90.162 0-171.949-35.035-233.21-91.879l-23.982 39.955c68.606 60.619 158.471 97.691 257.192 97.691 214.857 0 389.026-174.169 389.026-389.026s-174.169-389.026-389.026-389.026zM557.619 470.885v-45.768h-426.99l106.364-106.364-30.687-30.687-151.88 151.88 8.055 8.055-8.055 8.055 151.88 151.88 30.687-30.687-106.364-106.364h426.99z" />
<glyph unicode="&#xe912;" glyph-name="member-address" d="M833.145 571.454c-0.547-49.396-16.322-94.561-37.63-138.148-31.927-65.317-74.32-123.683-120.396-179.512-42.892-51.974-88.921-101.042-138.049-147.182-17.168-16.119-32.833-16.613-50.433-0.817-91.126 81.787-173.023 171.453-235.536 277.525-10.174 17.262-19.397 35.057-27.341 53.472-7.528 17.454-1.037 35.71 15.219 43.247 16.301 7.559 35.033 0.928 42.964-16.32 37.363-81.252 92.014-150.292 151.734-215.771 23.027-25.247 47.151-49.433 72.123-72.771 3.088-2.884 5.032-5.226 9.42-0.807 82.757 83.386 160.234 170.942 216.641 275.023 16.442 30.34 30.152 62.043 34.744 96.591 6.921 52.078-3.539 101.625-28.244 147.324-47.053 87.039-120.087 136.674-219.769 140.175-113.555 3.985-214.45-69.346-250.19-177.642-8.978-27.206-13.733-55.088-14.103-83.738-0.264-20.484-13.695-34.947-32.208-34.899-18.571 0.045-32.131 14.846-32.076 35.001 0.42 152.345 105.354 284.319 253.24 318.493 122.353 28.277 253.423-22.571 327.48-126.929 40.908-57.644 61.231-121.899 62.411-192.313zM149.141 62.657c242.036 0 482.684 0 723.538 0-0.036 4.16-2.776 6.877-4.513 9.922-31.401 55.148-62.872 110.26-94.398 165.337-6.765 11.817-7.185 23.585 0.342 35.013 6.78 10.3 16.72 15.283 29.080 14.437 11.108-0.766 19.85-6.222 25.348-15.81 43.030-75.053 86.115-150.077 128.699-225.383 13.145-23.251-3.109-48.061-30.753-48.067-144.012-0.048-288.025-0.023-432.033-0.023-131.62 0-263.247 0.659-394.855-0.507-29.538-0.264-47.647 26.708-31.41 54.029 42.49 71.487 82.88 144.223 124.152 216.435 8.888 15.55 22.783 22.38 37.333 18.601 21.52-5.597 30.885-28.445 19.48-48.617-22.027-38.965-44.373-77.752-66.565-116.623-10.91-19.113-21.777-38.248-33.445-58.744zM640.124 576.84c0.008-71.038-57.957-128.782-129.116-128.621-70.549 0.158-128.091 57.937-128.089 128.613 0.004 71.12 57.826 128.723 129.082 128.59 70.546-0.131 128.118-57.911 128.123-128.581zM511.914 641.119c-35.708-0.009-64.626-28.695-64.685-64.161-0.059-35.868 29.298-64.773 65.442-64.433 34.705 0.325 63.3 29.62 63.149 64.693-0.149 35.017-29.042 63.91-63.906 63.901z" />
<glyph unicode="&#xe913;" glyph-name="member-coupon" d="M950.667 616.923h-776.012c-64.659 0-117.006-48.355-117.006-107.912v-407.47c0-59.557 52.348-107.801 117.006-107.801h777.787c0 0-9.538 22.292-9.76 34.492-0.333 12.754 23.623 38.041 23.623 38.041v38.041c0 0-23.623 25.287-23.623 38.041s23.623 38.041 23.623 38.041v38.041c0 0-23.623 25.287-23.623 38.041s23.623 38.041 23.623 38.041v38.041c0 0-23.623 25.287-23.623 38.041s23.623 38.041 23.623 38.041v38.041c0 0-23.623 25.287-23.623 38.041s23.623 38.041 23.623 38.041v37.931c0 0-23.623 25.287-23.623 38.041-0.111 12.754 7.985 18.189 7.985 18.189v0zM902.091 567.903v-45.25c0 0-23.623-25.287-23.623-38.041s23.623-38.041 23.623-38.041v-38.041c0 0-23.623-25.287-23.623-38.041s23.623-38.041 23.623-38.041v-38.041c0 0-23.623-25.287-23.623-38.041s23.623-38.041 23.623-38.041v-38.041c0 0-23.623-25.287-23.623-38.041s23.623-38.041 23.623-38.041v-39.594l-7.763-21.627h-726.549c-25.398 0-56.784 34.159-56.784 72.755v407.026c1.331 16.081 22.070 44.917 42.699 44.917l748.397 0.222zM518.576 228.307v0 0.222h-92.163v56.008h92.163v0.333c11.091 0 19.963 8.984 19.963 19.963 0 11.091-8.984 19.963-19.963 19.963v0 0h-78.522l86.063 158.596c3.105 4.325 5.102 9.538 5.102 15.194 0 14.307-11.534 25.841-25.841 25.841-11.202 0-20.518-7.098-24.178-16.969h-0.222c0 0-74.418-145.398-77.856-155.269h-0.998c-4.769 12.2-81.405 155.269-81.405 155.269h-0.222c-3.549 9.871-12.865 16.969-23.956 16.969-14.085 0-25.509-11.423-25.509-25.509 0-5.323 1.553-10.203 4.325-14.196l-0.111-0.111 85.731-159.816h-80.075c-11.091 0-19.963-8.984-19.963-19.963 0-11.091 8.984-19.963 19.963-19.963v-0.333h95.047v-56.008h-95.047v-0.222c-11.091 0-19.963-8.984-19.963-19.963 0-11.091 8.984-19.963 19.963-19.963v-0.333h95.047v-80.629h0.555c-0.333-1.663-0.555-3.327-0.555-5.102 0-13.863 11.202-25.065 25.065-25.065s25.065 11.202 25.065 25.065c0 1.774-0.222 3.438-0.555 5.102h0.666v80.629h92.163v0.333c11.091 0 19.963 8.984 19.963 19.963 0.222 10.98-8.761 19.963-19.741 19.963v0zM681.054 510.564c0 12.422 12.311 22.625 27.505 22.625v0c15.194 0 27.505-10.093 27.505-22.625v-33.716c0-12.422-12.311-22.625-27.505-22.625v0c-15.194 0-27.505 10.093-27.505 22.625v33.716zM681.054 386.016c0 12.422 12.311 22.625 27.505 22.625v0c15.194 0 27.505-10.093 27.505-22.625v-33.716c0-12.422-12.311-22.625-27.505-22.625v0c-15.194 0-27.505 10.093-27.505 22.625v33.716zM681.054 261.579c0 12.422 12.311 22.625 27.505 22.625v0c15.194 0 27.505-10.093 27.505-22.625v-33.716c0-12.422-12.311-22.625-27.505-22.625v0c-15.194 0-27.505 10.093-27.505 22.625v33.716zM681.054 137.031c0 12.422 12.311 22.625 27.505 22.625v0c15.194 0 27.505-10.093 27.505-22.625v-33.716c0-12.422-12.311-22.625-27.505-22.625v0c-15.194 0-27.505 10.093-27.505 22.625v33.716zM246.522 651.637l22.958 60.444c6.987 14.529 34.048 27.505 53.346 20.185l212.497-80.629h158.596l-337.377 128.097c-60.444 22.958-126.544-3.549-147.727-59.224l-26.174-68.873h63.882zM433.4 789.605l41.59 48.577c11.423 11.313 41.257 14.307 57.006 0.887l179.668-153.827 89.834-33.716h36.045l-257.747 220.815c-49.131 42.034-120.223 39.483-159.040-5.767l-46.802-54.677 59.446-22.292z" />
<glyph unicode="&#xe914;" glyph-name="member-message" d="M910.834 799.932h-797.711c-38.882 0-70.386-31.504-70.386-70.386v-563.092c0-38.882 31.504-70.386 70.386-70.386h797.711c38.882 0 70.386 31.505 70.386 70.386v563.093c0.001 38.882-31.504 70.385-70.386 70.385v0zM934.296 166.456c0-12.966-10.495-23.461-23.463-23.461h-797.71c-12.968 0-23.461 10.495-23.461 23.461v563.092c0 12.967 10.493 23.461 23.461 23.461h797.711c12.968 0 23.463-10.494 23.463-23.461l-0.001-563.092zM927.791 769.551c-8.983 8.982-23.557 8.982-32.536 0 0 0-257.628-257.006-359.31-358.714-20.621-20.621-26.991-20.942-47.199-0.734-101.18 101.204-360.043 359.448-360.043 359.448-8.982 8.982-23.553 8.982-32.535 0-8.982-8.959-8.982-23.508 0-32.467 0 0 257.029-256.455 358.966-358.393 36.637-36.661 78.474-35.216 113.325-0.367 101.683 101.683 359.333 358.759 359.333 358.759 8.98 8.96 8.98 23.509 0 32.468v0zM411.395 464.429c-8.982 8.958-23.554 8.958-32.536 0l-306.154-305.489c-8.982-8.984-8.982-23.531 0-32.489 8.982-8.983 23.554-8.983 32.536 0l306.154 305.489c8.982 8.982 8.982 23.507 0 32.489v0zM951.25 158.941l-306.151 305.489c-8.983 8.958-23.554 8.958-32.536 0-8.983-8.983-8.983-23.508 0-32.49l306.154-305.488c8.983-8.983 23.531-8.983 32.534 0 8.983 8.959 8.983 23.506-0.001 32.489v0z" />
<glyph unicode="&#xe915;" glyph-name="member-order" d="M236.071-4.984c-52.162 0-96.087 43.925-96.087 96.087v549.071c0 35.69 30.199 65.889 65.889 65.889h60.398c38.435 0 68.634 30.199 68.634 68.634v60.398c0 35.69 30.199 65.889 65.889 65.889h387.095c52.162 0 96.087-43.925 96.087-96.087v-713.792c0-52.162-43.925-96.087-96.087-96.087h-551.817zM205.871 651.156c-5.491 0-10.981-5.491-10.981-10.981v-549.071c0-21.963 19.218-41.18 41.18-41.18h554.561c21.963 0 41.18 19.218 41.18 41.18v713.793c0 21.963-19.218 41.18-41.18 41.18h-389.841c-5.491 0-10.981-5.491-10.981-10.981v-60.398c0-68.634-54.908-123.541-123.541-123.541h-60.398zM472.171 598.995h274.536v-54.908h-274.536c0 0 0 54.908 0 54.908zM279.996 475.453h466.711v-54.908h-466.711c0 0.001 0 54.908 0 54.908zM279.996 346.422h466.711v-54.908h-466.711c0 0.001 0 54.908 0 54.908z" />
<glyph unicode="&#xe916;" glyph-name="member-wallet" d="M722.692 622.091c-12.752 7.351-26.233 13.477-39.393 20.18 2.598 2.926 4.856 4.979 7.078 7.070 22.839 21.495 43.343 46.361 54.059 75.695 5.194 14.221 6.478 20.41 10.084 33.615 6.711 41.687-1.002 67.034-26.157 88.104-33.994 28.475-72.564 31.847-113.307 15.131-2.827-1.159-4.703-2.006-7.52 0.62-52.44 48.852-136.629 49.307-189.43 1.073-2.468-2.254-4.246-2.822-7.448-1.371-21.427 9.71-43.821 11.791-66.81 7.109-43.562-8.869-79.598-45.375-73.204-95.232 5.548-43.257 22.568-80.689 51.91-112.958 6.022-6.622 12.424-12.912 18.905-19.616-1.616-0.771-3.215-1.577-4.844-2.312-149.879-67.515-251.12-214.213-262.975-381.076-3.279-46.141-4.751-87.522 11.224-137.077 22.577-70.031 82.169-124.667 158.585-124.494 180.075 0.409 360.155-0.042 540.231 0.232 57.849 0.088 102.385 25.666 134.697 72.24 16.423 23.675 34.052 67.886 34.052 115.954s-1.002 107.087-14.642 157.236c-33.144 121.843-104.124 215.906-215.093 279.877v0zM906.293 181.147c-3.95-25.73-8.221-52.713-22.726-74.342-28.533-42.55-83.199-65.918-134.285-65.999-159.026-0.25-318.055 0.163-477.080-0.212-67.483-0.158-131.132 37.391-147.489 102.504-10.387 41.34-9.264 93.054-6.368 135.209 10.47 152.446 148.401 296.205 280.76 357.888 1.44 0.671-38.149 35.377-43.469 41.427-25.913 29.478-42.094 53.351-46.993 92.869-6.015 48.519 30.267 62.835 52.225 67.461 20.302 4.276 63.398-17.378 65.577-15.319 46.63 44.067 120.976 43.649 167.288-0.981 2.488-2.4 4.144-1.626 6.64-0.567 35.98 15.271 66.41 24.685 96.429-1.329 22.214-19.249 22.734-33.549 17.286-63.772-3.31-12.545-23.856-46.081-31.701-56.473-28.989-38.402-57.364-62.908-59.32-64.824-0.211-0.207 61.962-29.39 72.358-37.311 95.976-73.117 160.681-129.669 189.949-240.986 15.376-58.482 30.104-115.395 20.918-175.242v0 0zM454.497 494.131c-7.393 7.804-29.847 30.892-29.847 30.892h-44.044c0 0 0.147-15.056 0.147-19.539 0-4.485 109.802-112.599 109.802-112.599h-109.949v-43.982h109.949v-44.307h-109.802v-43.721h109.961v-88.148h44.044l-0.395 88.148h110.506v43.985h-110.111l-0.395 44.044h110.357v43.982h-110.357l110.357 112.599v19.539h-43.896c0 0-38.245-36.995-46.611-46.202-3.488-2.944-28.91-30.1-41.479-42.586l-58.239 57.896z" />
<glyph unicode="&#xe917;" glyph-name="menu" d="M9.37 768h1011.213v-114.909h-1011.213v114.909zM9.37 492.213h1011.213v-114.909h-1011.213v114.909zM9.37 216.426h1011.213v-114.909h-1011.213v114.909z" />
<glyph unicode="&#xe918;" glyph-name="msg-favorable" d="M934.445 389.623c-17.366 3.84-34.618-7.222-38.458-24.76-11.749-54.334-34.733-104.599-68.319-149.362-128.27-171.37-372.086-206.447-543.456-78.005-82.934 62.129-136.81 152.858-151.482 255.508-14.787 102.65 11.348 204.842 73.477 287.833 128.327 171.313 372.143 206.275 543.342 78.005 71.815-53.761 123.054-131.308 144.318-218.311 4.299-17.366 21.78-27.855 39.146-23.728 17.366 4.184 27.969 21.665 23.671 39.088-24.76 101.504-84.482 192.004-168.333 254.706-199.799 149.591-484.193 108.84-633.899-91.073-72.445-96.747-102.994-216.076-85.8-335.806s79.954-225.59 176.758-298.093c79.151-59.263 173.319-90.385 270.525-90.385 21.665 0 43.444 1.548 65.339 4.7 119.787 17.194 225.647 80.011 298.093 176.758 39.261 52.443 66.084 111.075 79.896 174.58 3.725 17.366-7.394 34.618-24.817 38.343zM640.078 446.995c17.768 0 32.096 14.329 32.096 32.039s-14.329 32.039-32.096 32.039h-96.976v15.131l118.526 123.857c12.265 12.781 12.036 33.070-0.802 45.279-12.781 12.151-32.727 11.692-45.049-1.146l-101.561-106.777-107.579 107.35c-12.609 12.552-32.784 12.437-45.279-0.057-12.437-12.495-13.068-32.784-0.573-45.279l118.355-118.584v-19.774h-94.855c-17.653 0-32.039-14.329-32.039-32.039s14.329-32.039 32.039-32.039h94.798v-63.906h-94.798c-17.653 0-32.039-14.386-32.039-32.039 0-17.768 14.329-32.096 32.039-32.096h94.798v-95.085c0-17.71 14.329-32.039 31.924-32.039 17.768 0 32.096 14.329 32.096 32.039v95.085h96.976c17.768 0 32.096 14.329 32.096 32.096 0 17.653-14.329 32.039-32.096 32.039h-96.976v63.906h96.976z" />
<glyph unicode="&#xe919;" glyph-name="msg-logistics" d="M935.184 528.583c-0.034 0-0.034 0.031 0 0-9.862 14.182-21.286 29.419-33.102 44.020-0.479 0.576-0.928 1.153-1.408 1.729h0.255l-11.202 13.191c-14.692 17.287-29.096 32.685-41.68 44.562-29.131 27.503-43.344 31.216-53.393 31.216h-155.001c-4.288 0-8.515-0.451-12.645-1.343v68.703c0 33.263-27.047 60.317-60.31 60.317h-455.905c-33.258 0-60.31-27.054-60.31-60.317v-474.146c0-33.262 27.052-60.316 60.31-60.316h69.815c11.142-52.441 58.326-91.176 112.52-91.176 54.228 0 101.413 38.735 112.556 91.176h160.986c13.313 0 26.023 4.322 36.49 12.295 10.435-7.973 23.145-12.295 36.46-12.295h15.113c11.137-52.441 58.32-91.176 112.52-91.176 54.196 0 101.41 38.735 112.55 91.176h33.357c33.258 0 60.31 27.054 60.31 60.316v191.484c0 8.485-2.178 21.898-19.079 50.746-5.315 9.090-11.782 19.144-19.207 29.837v0zM293.163 152.693c-37.131 0-67.319 30.22-67.319 67.362 0 37.137 30.187 67.356 67.319 67.356s67.355-30.22 67.355-67.356c0-37.142-30.221-67.362-67.355-67.362v0zM579.31 602.984v-346.468c0-6.976-5.665-12.642-12.64-12.642h-160.986c-10.853 51.635-55.605 89.481-108.97 91.146h-0.352v-0.032h-0.738c-0.092 0-0.19 0.032-0.219 0h-5.636c-53.427-1.57-98.242-39.444-109.097-91.148h-69.878c-6.982 0-12.647 5.667-12.647 12.647v474.174c0 6.98 5.665 12.647 12.647 12.647h455.876c6.974 0 12.64-5.667 12.64-12.647v-127.677zM767.283 152.693c-37.133 0-67.353 30.22-67.353 67.362 0 37.137 30.22 67.356 67.353 67.356s67.353-30.22 67.353-67.356c0-37.142-30.25-67.362-67.353-67.362v0zM925.771 256.516c0-6.976-5.665-12.642-12.645-12.642h-33.323c-10.498 49.301-53.104 87.048-103.845 90.857v-0.223c-0.065 0-0.093 0.029-0.162 0.029-0.063 0-0.092 0.034-0.156 0.034s-0.097 0.029-0.162 0.029c-0.063 0-0.097 0.034-0.162 0.034-0.029 0-0.092 0-0.16 0.036-0.255 0.061-0.542 0.092-0.795 0.126h-1.027c-0.224 0-0.479 0-0.675 0.031h-1.503c-0.029 0-0.065 0-0.093 0.034h-0.034c-0.034 0-0.063 0-0.099 0.029h-1.152c-0.061 0-0.156 0.034-0.253 0h-4.609v-0.029l-0.162 0.063v-0.063h-0.029v0.063l-0.128-0.097h-0.034v0.131l-0.128-0.131-0.162 0.131-0.126-0.097h-0.036v0.097l-0.126-0.068v0.068l-0.162-0.034h-3.584l-0.797-0.128v0.065h-0.133v-0.099h-0.029l-0.161 0.099v-0.129h-0.032v0.129l-0.128-0.162v0.162h-0.128v-0.19h-0.029v0.19h-0.133c-0.352-0.034-0.704-0.034-1.088-0.065-50.258-4.259-92.352-41.811-102.757-90.765h-15.107c-6.982 0-12.647 5.665-12.647 12.647v346.306c0 6.98 5.665 12.647 12.647 12.647h152.758c2.467-1.216 10.307-5.857 26.539-21.674 1.216-1.183 2.397-2.37 3.649-3.588h-73.498c-33.26 0-60.31-27.052-60.31-60.316v-72.959c0-33.267 27.050-60.316 60.31-60.316h176.732v-140.263h-0.128zM925.771 444.477h-176.732c-6.98 0-12.647 5.667-12.647 12.649v72.963c0 6.976 5.667 12.643 12.647 12.643h115.881c5.728-7.075 11.299-14.211 16.578-21.256 0.068-0.063 0.133-0.162 0.196-0.259 9.413-12.579 18.086-25.003 25.062-35.984l3.232 1.729-3.008-2.017 6.721 3.97-6.594-4.197 3.203-5.154c13.701-22.441 15.333-30.767 15.495-31.856v-3.234h-0.036z" />
<glyph unicode="&#xe91a;" glyph-name="msg-notice" d="M908.062 663.201c-34.805 63.036-84.621 115.92-144.042 152.923-6.055 3.854-11.443 6.421-18.066 6.421-16.74 0-30.359-14.416-30.359-32.137 0-12.027 6.251-22.53 17.082-28.771 104.753-64.884 169.826-184.998 169.826-313.466 0-128.349-65.012-248.409-169.604-313.291-8.657-5.045-17.908-15.375-17.908-29.245 0-17.72 13.644-32.137 30.414-32.137 7.066 0 12.645 3.051 17.766 6.185 59.68 36.964 109.703 89.884 144.663 153.038 36.019 65.069 55.058 139.57 55.058 215.45 0 75.706-18.96 150.064-54.832 215.029zM797.494 448.169c0 44.67-11.221 88.529-32.447 126.834-20.602 37.176-50.075 68.316-85.232 90.054l-0.108 0.064c-1.023 0.564-10.189 5.515-16.998 5.515-16.862 0-30.579-14.466-30.579-32.245 0-11.653 5.794-22.449 15.139-28.183 54.838-33.052 88.906-95.139 88.906-162.037 0-68.294-35.121-131.042-91.658-163.761l-0.1-0.061c-9.134-5.857-14.586-16.165-14.586-27.574 0-17.811 13.693-32.302 30.499-32.302l0.162-0.001c0.001 0 0.001 0 0.001 0 7.089 0 15.105 4.167 15.443 4.343l0.115 0.064c74.91 44.373 121.444 128.4 121.444 219.289zM544.885 894.343c-4.933 2.525-10.441 3.86-15.924 3.86-8.247 0-16.341-2.989-22.784-8.413l-0.145-0.122c-5.26-4.433-52.894-44.482-104.764-85.013-93.713-73.285-122.131-86.373-127.717-88.482h-119.026c-0.782 0-1.484-0.053-2.138-0.11h-60.914c-16.771 0-30.413-14.404-30.413-32.11v-472.004c0-17.689 13.644-32.079 30.413-32.079l204.201-0.059c5.426-2.258 32.177-15.765 115.237-87.66 28.35-24.523 61.111-54.030 92.245-83.085 0.826-0.771 1.364-1.271 1.591-1.478v-0.001c6.662-6.31 15.255-9.785 24.196-9.785 5.101 0 10.288 1.183 15.004 3.424 13.464 6.427 22.509 20.54 22.509 35.113 0.003 1.575 0.291 157.506 0.291 160.614 0 3.172-1.3 656.126-1.314 662.716-0.001 14.878-7.874 28.164-20.55 34.675zM505.425 202.139l-0.466-102.812c-15.511 13.908-30.521 27.095-44.68 39.248-113.662 97.719-142.153 105.895-161.591 105.895-0.385 0-0.702-0.048-0.934-0.084-0.060-0.009-0.121-0.021-0.139-0.026-0.063 0.005-0.124 0.017-0.184 0.026-0.231 0.036-0.548 0.084-0.933 0.084h-153.521c-17.659 0-21.472 4.279-21.472 24.096v362.245c0 13.906 1.486 20.458 15.069 20.458h138.306c18.921 0 47.789 8.082 172.003 104.664 18.958 14.74 38.937 30.607 58.054 46.107 0.050-59.883 0.489-597.525 0.489-599.9z" />
<glyph unicode="&#xe91b;" glyph-name="new-dt" d="M1002.4 694.816h-980.8c-6.784 0-12.288-5.504-12.288-12.288v-463.52c0-6.784 5.504-12.288 12.288-12.288h330.656l159.264-155.904 155.904 155.904h334.944c6.784 0 12.288 5.504 12.288 12.288v463.52c0 6.784-5.504 12.288-12.288 12.288zM354.976 589.376h211.264v-48.192h-153.76v-63.168h143.040v-48h-143.040v-77.568h159.2v-48h-216.736v284.96zM294.144 304.416h-57.728l-114.88 185.824v-185.824h-53.44v284.96h55.968l116.608-190.272v190.272h53.44v-284.96zM897.664 304.416h-61.024l-56.768 213.024-56.544-213.024h-62.4l-68.032 284.96h58.88l42.944-195.744 52.096 195.744h68.416l49.952-199.040 43.744 199.040h57.92l-69.184-284.96z" />
<glyph unicode="&#xe91c;" glyph-name="password" d="M768.576 529.992h-392.288v91.44c0 37.131 14.176 72.013 39.917 98.222 25.609 26.075 59.622 40.435 95.772 40.435s70.163-14.36 95.772-40.435c19.144-19.492 31.885-43.783 37.161-70.227h28.038c-13.073 78.489-80.162 138.261-160.972 138.261-90.182 0-163.289-74.434-163.289-166.256v-91.44h-51.909v117.135c0 57.808 22.406 112.146 63.092 153.007 40.639 40.813 94.658 63.289 152.106 63.289s111.468-22.477 152.106-63.289c40.145-40.317 62.478-93.759 63.064-150.706h41.398c-1.23 141.258-115.616 255.394-256.566 255.394-141.716 0-256.597-115.374-256.597-257.694v-117.135c-51.534 0-93.308-41.954-93.308-93.706v-210.84c0-129.384 104.439-234.268 233.27-234.268h233.271c128.831 0 233.27 104.884 233.27 234.268v210.84c0 51.753-41.775 93.706-93.308 93.706zM820.485 295.727v-70.281c0-51.551-19.98-100.007-56.26-136.442-36.233-36.388-84.394-56.427-135.612-56.427h-233.27c-51.217 0-99.378 20.039-135.612 56.427-36.28 36.435-56.26 84.891-56.26 136.442v210.84c0 28.843 23.286 52.308 51.909 52.308h513.194c28.623 0 51.909-23.465 51.909-52.308v-140.559zM511.979 366.008c-32.209 0-58.317-26.221-58.317-58.568v-46.852c0-32.347 58.183-81.994 58.317-81.994 1.592 0 58.317 49.648 58.317 81.994v46.852c0 32.347-26.109 58.568-58.317 58.568z" />
<glyph unicode="&#xe91d;" glyph-name="phone" d="M564.354 112.801c0-28.926-23.449-52.376-52.376-52.376s-52.376 23.449-52.376 52.376c0 28.926 23.449 52.376 52.376 52.376s52.376-23.449 52.376-52.376zM773.854 898.426h-523.751c-34.712 0-62.85-28.138-62.85-62.85v-69.304h42.607v69.304c0 11.162 9.081 20.243 20.243 20.243h523.751c11.162 0 20.243-9.081 20.243-20.243v-607.55h-564.237v427.291h-42.607v-594.891c0-34.71 28.138-62.85 62.85-62.85h523.751c34.71 0 62.85 28.14 62.85 62.85v775.15c-0.001 34.713-28.141 62.85-62.85 62.85zM773.854 40.182h-523.751c-11.162 0-20.243 9.081-20.243 20.243v125.7h564.237v-125.7c0-11.162-9.082-20.243-20.243-20.243z" />
<glyph unicode="&#xe91e;" glyph-name="round-check" d="M511.968-11.808c-253.536 0-459.808 206.272-459.808 459.808s206.24 459.808 459.808 459.808c253.536 0 459.808-206.24 459.808-459.808s-206.272-459.808-459.808-459.808zM511.968 841.824c-217.152 0-393.824-176.672-393.824-393.824 0-217.12 176.672-393.824 393.824-393.824 217.12 0 393.824 176.704 393.824 393.824 0 217.152-176.704 393.824-393.824 393.824zM732.608 569.952c-12.864 12.768-33.696 12.64-46.432-0.256l-239.424-242.048-105.984 108.896c-12.672 13.024-33.472 13.28-46.432 0.672-12.992-12.64-13.312-33.472-0.672-46.432l129.344-132.928c0.064-0.096 0.192-0.096 0.256-0.192 0.064-0.064 0.096-0.192 0.16-0.256 2.080-2.048 4.64-3.296 7.072-4.672 1.28-0.704 2.304-1.856 3.616-2.368 3.968-1.632 8.224-2.464 12.416-2.464 4.16 0 8.352 0.832 12.288 2.4 1.28 0.512 2.272 1.568 3.488 2.24 2.464 1.376 5.024 2.592 7.136 4.672 0.064 0.064 0.096 0.192 0.192 0.256 0.064 0.096 0.16 0.128 0.256 0.192l262.976 265.824c12.768 12.928 12.64 33.728-0.224 46.464z" />
<glyph unicode="&#xe91f;" glyph-name="share" d="M768 329.846c-70.971 0-131.938-42.22-160.217-102.715l-290.028 133.829c22.686 29.696 36.706 66.481 36.706 106.732 0 40.409-14.178 77.273-37.022 107.126l286.011 143.045c25.994-65.615 89.797-112.325 164.549-112.325 97.674 0 177.231 79.557 177.231 177.231s-79.557 177.231-177.231 177.231-177.231-79.557-177.231-177.231c0-8.901 1.418-17.408 2.599-25.915l-304.837-152.418c-30.484 24.891-68.923 40.487-111.301 40.487-97.753 0-177.231-79.557-177.231-177.231s79.478-177.231 177.231-177.231c42.457 0 80.896 15.596 111.458 40.566l306.176-141.154c-2.521-12.052-4.096-24.497-4.096-37.258 0-97.674 79.557-177.231 177.231-177.231s177.231 79.557 177.231 177.231-79.557 177.231-177.231 177.231zM768 920.615c76.012 0 137.846-61.834 137.846-137.846s-61.834-137.846-137.846-137.846-137.846 61.834-137.846 137.846 61.834 137.846 137.846 137.846zM177.231 329.846c-76.012 0-137.846 61.834-137.846 137.846s61.834 137.846 137.846 137.846 137.846-61.834 137.846-137.846-61.834-137.846-137.846-137.846zM768 14.769c-76.012 0-137.846 61.834-137.846 137.846s61.834 137.846 137.846 137.846 137.846-61.834 137.846-137.846-61.834-137.846-137.846-137.846z" />
<glyph unicode="&#xe920;" glyph-name="shop-help" d="M988.559 507.351c0 248.371-213.371 449.69-476.57 449.69-263.229 0-476.6-201.308-476.6-449.69 0-248.34 213.371-449.659 476.6-449.659 42.803 0 84.050 5.806 123.515 15.79l195.83-134.676-14.367 223.13c104.806 82.483 171.592 206.572 171.592 345.416zM581.54 229.878l-34.642-34.099h-78.449l-25.539 25.149v70.001l14.592 25.119h93.030l30.986-30.505v-55.665zM712.878 579.953c0 0-162.335-140.001-164.157-170.547v-32.297h-91.208v102.339l144.118 131.052v66.406c0 0-51.077 86.17-142.285 25.16 0 0-47.411-35.932-60.18-111.329 0 0-114.913-64.614-100.321 61.051 0 0 43.756 122.071 158.679 152.576h116.736c0 0 118.569-34.099 138.619-129.26v-95.15z" />
<glyph unicode="&#xe921;" glyph-name="tel" d="M769.875-64c-5.903 0-11.806 0-17.709 0l-123.965 29.515c-29.515 5.903-59.031 23.612-76.74 47.225l-454.539 507.667c-17.709 17.709-35.419 53.128-41.322 82.643l-17.709 76.74c-5.903 17.709 5.903 35.419 29.515 41.322 17.709 0 35.419-11.806 35.419-29.516l17.709-76.74c5.903-11.806 17.709-35.419 23.612-47.225l454.539-507.667c11.806-11.806 29.515-23.612 41.322-23.612l123.965-29.515c5.903 0 23.612 0 29.515 11.806l112.159 112.159c0 0 0 5.903 0 5.903l-100.353 112.159c0 0-5.903 5.903-11.806 0l-29.515-17.709c-23.612-17.709-59.031-29.515-82.643-29.515h-17.709c-29.516-5.903-70.837 11.806-88.546 35.419l-253.833 289.252c-23.612 23.612-35.419 59.031-29.515 94.45l5.903 17.709c5.903 23.612 23.612 59.031 41.322 82.643l23.612 23.612c0 0 0 5.903 0 11.806l-123.965 129.868c0 0-5.903 0-5.903 0l-100.353-70.837c-11.806-11.806-35.419-11.806-47.225 5.903-11.806 11.806-5.903 35.419 5.903 47.225l100.353 76.74c29.516 23.612 76.74 17.709 100.353-11.806l123.965-135.771c23.612-29.516 23.612-70.837 0-100.353l-29.515-29.515c-5.903-5.903-17.709-29.516-23.612-41.322v-23.612c0-11.806 5.903-29.515 11.806-35.419l265.639-301.058c5.903-5.903 23.612-11.806 29.516-11.806h17.709c17.709 0 41.322 11.806 53.128 17.709l29.515 17.709c29.515 23.612 76.74 17.709 100.353-11.806l100.353-112.159c23.612-29.515 23.612-70.837-5.903-100.353l-112.159-112.159c-23.612-5.903-53.128-17.709-82.643-17.709v0zM651.813 443.667c0 0-5.903 0-5.903 0-17.709 5.903-29.515 23.612-29.515 41.322 11.806 53.128-23.612 106.256-76.74 118.062-23.612 0-35.419 17.709-29.515 35.419 5.903 23.612 23.612 35.419 41.322 29.516 88.546-17.709 153.481-106.256 135.771-194.802-5.903-17.709-17.709-29.515-35.419-29.515v0zM781.681 484.988c0 0-5.903 0-5.903 0-17.709 5.903-29.515 23.612-29.515 41.322 17.709 88.546-53.128 177.093-147.577 194.802-17.709 0-29.516 17.709-23.612 35.419s23.612 29.516 41.322 29.516c135.771-23.612 224.318-147.577 200.705-271.543-5.903-17.709-17.709-29.515-35.419-29.515v0zM905.646 526.31c0 0-5.903 0-5.903 0-17.709 5.903-29.516 23.612-29.516 41.322 23.612 123.965-70.837 247.93-206.608 271.543-17.709 5.903-29.515 23.612-29.515 41.322 5.903 17.709 23.612 29.516 41.322 29.516 171.19-29.516 289.252-188.899 259.736-348.283 0-23.612-11.806-35.419-29.515-35.419v0z" />
<glyph unicode="&#xe922;" glyph-name="user" d="M1022.9-33.5l-5.8-36.2h-1017l-3.7 39.3c-0.8 9.4-19.8 233.2 90.6 354.7 46.1 50.8 107.1 76.5 181 76.5h20.1l12.9-15.5c56.3-67.3 115.1-113.9 210.8-113.9 93 0 143.5 43.3 202.8 115.1l12.9 15.7h20.2c87.3 0 156.3-29.4 205.1-87.2 105.6-125.3 71.6-339.4 70.1-348.5zM888.9 262.3c-29.1 34.9-68.7 53.9-121.2 57.6-60.1-70.8-135-132.5-259.9-132.5-127.7 0-205.4 63.6-263.7 130.7-40.8-3.7-73.5-19.7-99.5-48.8-62-69.6-77.3-201.2-77.3-265.1h887.5c4.2 60.3-7.1 187-65.9 258.1zM519.8 362.4c-151.2 0-257.3 234.8-257.3 361.9 0 133 115.4 241.3 257.3 241.3 141.8 0.1 257.2-108.2 257.2-241.2 0-127.2-106.1-362-257.2-362zM517.8 888.3c-98.9 0-179.4-73-179.4-162.7 0-101.1 92.2-289.1 179.4-289.1s179.3 188 179.3 289.1c0 89.7-80.4 162.7-179.3 162.7z" />
<glyph unicode="&#xe923;" glyph-name="validate-code" d="M915.342 784.496c-5.453 0-42.774-12.114-101.279-12.114-44.955 0-102.42 7.154-167.535 32.45-42.088 16.353-87.376 89.755-134.55 89.755-55.689 0-108.745-77.47-157.016-99.168-52.939-23.798-100.118-31.208-138.701-31.208-63.703 0-103.969 20.202-108.004 20.202-0.222 0-0.335-0.061-0.335-0.191 0-304.76 94.317-782.811 404.056-782.811 321.279 0 404.056 478.051 404.056 782.811 0 0.187-0.232 0.273-0.692 0.273zM852.95 539.917c-13.511-92.684-34.037-175.1-61.011-244.957-30.291-78.452-68.13-139.282-112.463-180.802-23.214-21.74-48.562-38.384-75.34-49.471-28.317-11.723-59.323-17.667-92.159-17.667-31.31 0-61.080 5.893-88.482 17.516-26.099 11.070-50.989 27.712-73.977 49.463-44.142 41.767-82.265 102.766-113.307 181.3-27.857 70.477-49.272 152.931-63.652 245.073-9.363 60.003-15.407 122.573-17.829 183.834 17.471-3.221 38.175-5.599 61.529-5.599 52.46 0 105.417 11.849 157.399 35.216 25.109 11.286 48.035 31.222 70.207 50.501 14.398 12.52 29.286 25.467 42.902 34.247 13.341 8.604 21.072 10.41 25.209 10.41 0.043 0 4.259-0.109 14.858-7.424 10.632-7.337 22.651-18.471 34.274-29.238 21.233-19.668 43.188-40.006 68.903-49.999 60.713-23.587 122.636-35.546 184.050-35.546 21.032 0 39.73 1.439 55.493 3.361-2.050-64.194-7.688-129.047-16.605-190.218zM466.651 325.491l-118.107 122.509h-63.35l181.457-188.22 302.241 313.505h-63.35z" />
</font>
</defs>
</svg>
